<svg width="13" height="12" viewBox="0 0 13 12" fill="none" xmlns="http://www.w3.org/2000/svg">
<path fill-rule="evenodd" clip-rule="evenodd" d="M6.63444 0.639231C6.78446 0.489254 6.98791 0.405002 7.20004 0.405002C7.41217 0.405002 7.61561 0.489254 7.76564 0.639231L12.5656 5.43923C12.7156 5.58925 12.7999 5.7927 12.7999 6.00483C12.7999 6.21696 12.7156 6.42041 12.5656 6.57043L7.76564 11.3704C7.61475 11.5162 7.41267 11.5968 7.20292 11.595C6.99316 11.5931 6.79251 11.509 6.64418 11.3607C6.49586 11.2124 6.41172 11.0117 6.4099 10.802C6.40807 10.5922 6.48871 10.3901 6.63444 10.2392L10.0688 6.80483L0.800036 6.80483C0.587863 6.80483 0.384379 6.72055 0.23435 6.57052C0.0843213 6.42049 3.64304e-05 6.217 3.64304e-05 6.00483C3.64304e-05 5.79266 0.0843213 5.58918 0.23435 5.43915C0.384379 5.28912 0.587863 5.20483 0.800036 5.20483L10.0688 5.20483L6.63444 1.77043C6.48446 1.62041 6.40021 1.41696 6.40021 1.20483C6.40021 0.9927 6.48446 0.789253 6.63444 0.639231Z" fill="#1D1E1E"/>
</svg>
