<svg width="18" height="19" viewBox="0 0 18 19" fill="none" xmlns="http://www.w3.org/2000/svg">
<path d="M17.9839 9.28612C17.9839 10.4847 17.9968 11.6837 17.9792 12.8819C17.9673 13.6875 17.8717 14.4869 17.5613 15.2407C16.9604 16.6993 15.8981 17.6437 14.3733 18.0622C13.7634 18.2298 13.1398 18.3071 12.5094 18.3129C10.5743 18.3305 8.63885 18.3478 6.70374 18.3481C5.78204 18.3481 4.85998 18.3284 3.95086 18.1353C2.5408 17.8357 1.46194 17.0747 0.74055 15.8269C0.331305 15.1184 0.140347 14.3359 0.0943161 13.5267C0.0450484 12.6601 0.0238309 11.7912 0.0177174 10.9231C0.00764808 9.43716 -0.000263521 7.95086 0.0292252 6.46563C0.0436099 5.75575 0.0864045 5.03615 0.220183 4.34065C0.617561 2.27716 2.06251 0.875007 4.14614 0.507836C4.7503 0.401389 5.37279 0.361831 5.98738 0.357516C8.1566 0.342412 10.3262 0.346368 12.4958 0.363629C13.3498 0.370462 14.1964 0.482663 14.9904 0.82502C16.5767 1.50865 17.5203 2.71805 17.8379 4.40646C17.9271 4.8808 17.972 5.36916 17.9807 5.85177C18.0008 6.99607 17.9871 8.1411 17.9871 9.28576C17.986 9.28612 17.985 9.28612 17.9839 9.28612ZM16.3455 9.34798C16.3487 9.34798 16.3519 9.34798 16.3548 9.34798C16.3548 8.6888 16.3696 8.02961 16.3512 7.37115C16.3286 6.56381 16.3171 5.75323 16.2318 4.95128C16.0758 3.48404 15.1425 2.49545 13.7016 2.19193C12.9399 2.03154 12.1649 2.02722 11.3939 2.02579C9.45878 2.02147 7.52331 2.03837 5.58821 2.06031C5.21276 2.06462 4.83337 2.10382 4.46404 2.17107C3.05649 2.42784 2.15277 3.24453 1.87371 4.65963C1.75395 5.26631 1.71008 5.89528 1.70325 6.5149C1.68203 8.40254 1.68455 10.2902 1.70217 12.1778C1.70756 12.7622 1.74425 13.3545 1.84782 13.9288C2.09595 15.309 2.90545 16.2048 4.2961 16.4961C4.82546 16.6069 5.37495 16.6464 5.9169 16.6651C6.9285 16.6997 7.94155 16.7033 8.95423 16.704C9.91262 16.7047 10.8717 16.7 11.8297 16.6691C12.4386 16.6497 13.0557 16.6313 13.6512 16.5188C15.0091 16.2624 15.8769 15.4381 16.166 14.078C16.2833 13.526 16.3235 12.9514 16.3383 12.3853C16.3645 11.3737 16.3455 10.3607 16.3455 9.34798Z" fill="#EDEDED"/>
<path d="M9.00571 4.69988C11.4569 4.67831 13.6397 6.62996 13.6628 9.33105C13.6847 11.8919 11.5874 13.9906 9.03196 13.9946C6.46896 13.9985 4.37742 11.9171 4.37238 9.3573C4.36771 6.78675 6.43839 4.70492 9.00571 4.69988ZM9.0262 12.3022C10.6182 12.3572 11.9934 10.968 11.9941 9.35047C11.9952 7.71744 10.6535 6.37355 9.02009 6.37319C7.38455 6.37283 6.05108 7.71241 6.04353 9.34759C6.03598 10.945 7.41332 12.3652 9.0262 12.3022Z" fill="#EDEDED"/>
<path d="M12.718 4.53976C12.7177 3.92194 13.2053 3.43753 13.8264 3.43897C14.4359 3.44077 14.9167 3.92014 14.9243 4.53437C14.9318 5.1468 14.4377 5.64595 13.8228 5.64631C13.2064 5.64667 12.7184 5.15794 12.718 4.53976Z" fill="#EDEDED"/>
</svg>
