<svg width="18" height="18" viewBox="0 0 18 18" fill="none" xmlns="http://www.w3.org/2000/svg">
<path d="M17.9838 8.93798C17.9838 10.1366 17.9967 11.3356 17.9791 12.5338C17.9673 13.3393 17.8716 14.1388 17.5612 14.8925C16.9603 16.3512 15.898 17.2955 14.3732 17.7141C13.7633 17.8817 13.1397 17.959 12.5093 17.9648C10.5742 17.9824 8.63876 17.9996 6.70365 18C5.78195 18 4.85989 17.9802 3.95077 17.7871C2.54071 17.4875 1.46185 16.7266 0.740459 15.4787C0.331213 14.7703 0.140256 13.9877 0.0942246 13.1786C0.0449568 12.3119 0.0237394 11.4431 0.0176258 10.575C0.00755653 9.08902 -0.000355074 7.60271 0.0291336 6.11749C0.0435184 5.4076 0.0863129 4.68801 0.220091 3.9925C0.617469 1.92901 2.06242 0.526862 4.14604 0.159692C4.7502 0.0532448 5.3727 0.0136868 5.98729 0.0093714C8.15651 -0.00573257 10.3261 -0.00177677 12.4957 0.0154849C13.3498 0.0223177 14.1963 0.134519 14.9903 0.476875C16.5766 1.16051 17.5203 2.36991 17.8378 4.05831C17.927 4.53265 17.9719 5.02101 17.9806 5.50362C18.0007 6.64793 17.987 7.79295 17.987 8.93762C17.986 8.93798 17.9849 8.93798 17.9838 8.93798ZM16.3454 8.99983C16.3486 8.99983 16.3519 8.99983 16.3547 8.99983C16.3547 8.34065 16.3695 7.68147 16.3511 7.02301C16.3285 6.21567 16.317 5.40509 16.2317 4.60314C16.0757 3.13589 15.1425 2.1473 13.7015 1.84378C12.9398 1.6834 12.1648 1.67908 11.3938 1.67764C9.45869 1.67333 7.52322 1.69023 5.58811 1.71216C5.21267 1.71648 4.83328 1.75568 4.46395 1.82293C3.0564 2.07969 2.15268 2.89639 1.87362 4.31149C1.75386 4.91816 1.70999 5.54714 1.70316 6.16676C1.68194 8.05439 1.68446 9.94203 1.70208 11.8297C1.70747 12.414 1.74415 13.0063 1.84772 13.5807C2.09586 14.9609 2.90536 15.8567 4.29601 16.148C4.82536 16.2587 5.37486 16.2983 5.9168 16.317C6.92841 16.3515 7.94146 16.3551 8.95414 16.3558C9.91253 16.3565 10.8716 16.3519 11.8296 16.3209C12.4385 16.3015 13.0556 16.2832 13.6511 16.1706C15.009 15.9142 15.8768 15.09 16.1659 13.7299C16.2832 13.1779 16.3234 12.6032 16.3382 12.0372C16.3644 11.0256 16.3454 10.0125 16.3454 8.99983Z" fill="#0F0F0F"/>
<path d="M9.00561 4.35174C11.4568 4.33016 13.6397 6.28181 13.6627 8.98291C13.6846 11.5437 11.5873 13.6425 9.03187 13.6464C6.46887 13.6504 4.37733 11.5689 4.37229 9.00916C4.36762 6.43861 6.4383 4.35677 9.00561 4.35174ZM9.02611 11.9541C10.6181 12.0091 11.9933 10.6199 11.994 9.00233C11.9951 7.3693 10.6534 6.0254 9.02 6.02504C7.38445 6.02468 6.05099 7.36426 6.04344 8.99945C6.03589 10.5969 7.41322 12.017 9.02611 11.9541Z" fill="#0F0F0F"/>
<path d="M12.7179 4.19162C12.7175 3.57379 13.2052 3.08939 13.8262 3.09082C14.4358 3.09262 14.9166 3.57199 14.9242 4.18622C14.9317 4.79865 14.4376 5.2978 13.8226 5.29816C13.2063 5.29852 12.7183 4.8098 12.7179 4.19162Z" fill="#0F0F0F"/>
</svg>
