<svg width="132" height="39" viewBox="0 0 132 39" fill="none" xmlns="http://www.w3.org/2000/svg">
<path d="M46.6959 11.9575H40.8271V29.4112H44.7389V22.8669H46.6959C48.8542 22.8669 50.6054 20.9122 50.6054 18.5018V16.3204C50.6054 13.9122 48.8542 11.9575 46.6959 11.9575ZM45.7174 18.5018H44.7389V16.3204H45.7174C46.2564 16.3204 46.6959 16.8085 46.6959 17.4122C46.6959 18.0137 46.2564 18.5018 45.7174 18.5018Z" fill="#EDEDED"/>
<path d="M61.5148 16.3204V11.9575H51.7365V29.4112H61.5148V25.0461H55.6483V22.8669H59.5601V18.5018H55.6483V16.3204H61.5148Z" fill="#EDEDED"/>
<path d="M68.7577 11.9575V17.4932L66.8029 11.9575H62.8889V29.4112H66.8029V23.864L68.7577 29.4112H72.6694V11.9575H68.7577Z" fill="#EDEDED"/>
<path d="M79.1651 16.3204H82.9797V11.9575H78.0894C75.9288 11.9575 74.1777 13.9122 74.1777 16.3204V18.1987C74.1777 20.2784 75.4939 22.0689 77.3237 22.476L78.2051 22.6726C78.7071 22.786 79.0679 23.2764 79.0679 23.8478C79.0679 24.167 78.9546 24.4724 78.7533 24.6968C78.5521 24.9211 78.2791 25.0461 77.9923 25.0461H74.1777V29.4112H79.0679C81.2285 29.4112 82.9797 27.4565 82.9797 25.0461V23.17C82.9797 21.0904 81.6634 19.2999 79.836 18.8927L78.9546 18.6961C78.4526 18.5828 78.0894 18.0923 78.0894 17.5186C78.0894 17.2017 78.2028 16.8964 78.404 16.672C78.6053 16.4476 78.8806 16.3204 79.1651 16.3204Z" fill="#EDEDED"/>
<path d="M88.3951 16.3204V18.5018H92.3069V22.8669H88.3951V25.0461H94.2616V29.4112H84.4833V11.9575H94.2616V16.3204H88.3951Z" fill="#EDEDED"/>
<path d="M95.4437 25.2681V28.0833H96.4222L95.4437 29.4898H98.3792L99.3554 28.0833V25.2681H95.4437Z" fill="#EDEDED"/>
<path d="M5.86651 11.9575V17.4932L3.91179 11.9575H3.05176e-05V29.4112H3.91179V23.864L5.86651 29.4112H9.77827V11.9575H5.86651Z" fill="#EDEDED"/>
<path d="M22.1636 26.0477L21.2707 21.6849L19.2789 11.9575H14.2799L12.2882 21.6849L11.3953 26.0477L10.7059 29.4112H14.7194L15.4088 26.0477H18.1524L18.8394 29.4112H22.8529L22.1636 26.0477ZM16.3017 21.6849L16.7806 19.3485L17.2594 21.6849H16.3017Z" fill="#EDEDED"/>
<path d="M29.3139 11.9575H27.3592C25.1986 11.9575 23.4474 13.9122 23.4474 16.3204V25.0461C23.4474 27.4565 25.1986 29.4112 27.3592 29.4112H29.3139C31.4745 29.4112 33.2257 27.4565 33.2257 25.0461V16.3204C33.2257 13.9122 31.4745 11.9575 29.3139 11.9575ZM29.3139 23.9565C29.3139 24.558 28.8767 25.0461 28.3377 25.0461C27.7964 25.0461 27.3592 24.558 27.3592 23.9565V17.4122C27.3592 16.8085 27.7964 16.3204 28.3377 16.3204C28.8767 16.3204 29.3139 16.8085 29.3139 17.4122V23.9565Z" fill="#EDEDED"/>
<path d="M19.3923 9.18164L14.2082 9.18627V10.4539L19.3946 10.447L19.3923 9.18164Z" fill="#EDEDED"/>
<path d="M116.541 36.2193C116.61 36.3881 116.682 36.5547 116.767 36.7583C116.286 36.8323 115.87 36.8947 115.454 36.9595C115.259 36.9896 115.035 36.978 114.875 37.0729C114.357 37.3829 113.813 37.3435 113.291 37.2279C112.853 37.7645 112.853 37.7645 112.333 37.5078C112.358 37.4199 112.388 37.3273 112.407 37.2348C112.419 37.177 112.414 37.1168 112.421 36.9942C111.905 37.0451 111.454 37.4176 110.94 37.325C110.427 37.2348 109.925 37.0752 109.358 36.9295C109.275 37.0729 109.191 37.2417 109.083 37.3921C108.988 37.524 108.882 37.6558 108.75 37.746C108.423 37.9704 107.989 37.8363 107.873 37.4569C107.769 37.1191 107.736 36.7606 107.658 36.3372C106.853 35.8885 105.974 35.3957 105.069 34.8891C104.947 34.94 104.806 35.0002 104.66 35.0603C104.391 34.984 104.509 34.4265 104.058 34.5768C103.792 34.2969 103.492 34.0425 103.269 33.7325C103.087 33.4804 102.867 33.3022 102.61 33.1565C102.046 32.8349 101.613 32.2913 100.931 32.1664C100.459 31.7269 99.9083 31.3614 99.8921 30.5934C99.8828 30.1886 99.5914 29.867 99.2374 29.6681C98.8928 29.4761 98.7678 29.2239 98.6776 28.833C98.5643 28.3356 98.2844 27.866 98.0276 27.4103C97.8194 27.0379 97.6436 26.6631 97.5117 26.2513C96.982 24.5881 96.5147 22.9156 96.4499 21.1575C96.443 20.9632 96.3967 20.7689 96.369 20.5838C95.4344 20.2738 95.4946 19.8945 96.1261 19.4896C96.1238 18.9853 96.1908 18.4718 96.0127 17.9536C95.8739 17.5511 96.0914 17.1694 96.2926 16.8386C96.5725 16.3806 96.7484 15.8948 96.8316 15.3697L96.8177 15.3836C96.8825 15.2124 96.9704 15.0435 97.0051 14.8677C97.0398 14.6826 97.0213 14.486 97.0259 14.294C97.1601 13.9701 97.4053 13.6879 97.4909 13.2553C97.0028 13.5792 96.9912 13.6116 97.0514 14.3125C96.9496 14.3773 96.8478 14.4444 96.7183 14.5276C96.4846 14.3449 96.8316 13.9216 96.4592 13.7758C96.4384 13.7666 96.4499 13.5838 96.4939 13.5098C96.7021 13.1443 96.679 12.6816 97.0306 12.3647C97.1856 12.2259 97.2318 11.9576 97.3151 11.7425C97.6436 10.8796 97.9975 10.0422 98.7956 9.47544C98.9691 9.35052 99.0709 9.11457 99.1842 8.91794C99.4364 8.48073 99.7949 8.14993 100.207 7.87234C100.274 7.82607 100.383 7.83995 100.575 7.80988C100.45 8.04352 100.352 8.1962 100.281 8.36044C100.135 8.69355 99.7047 8.76758 99.6099 9.17703C99.5312 9.51708 99.2999 9.81781 99.1727 10.1486C99.1195 10.2874 99.1634 10.4609 99.1657 10.6228C99.0107 10.7084 98.8141 10.757 98.7054 10.8842C98.555 11.0577 98.4301 11.2035 98.1918 11.2937C98.0091 11.3631 97.8633 11.5967 97.7616 11.7887C97.6413 12.0154 97.5649 12.2722 97.5048 12.5243C97.4724 12.6539 97.5487 12.7742 97.7246 12.7557C97.9975 12.5359 97.9952 12.0779 98.4 11.9738L98.3769 11.9576C98.215 12.3809 98.0484 12.8043 97.8911 13.2299C97.8032 13.4705 97.706 13.7134 97.6621 13.9655C97.639 14.102 97.6459 14.3033 97.8749 14.331C98.3006 13.991 97.9628 13.1512 98.7678 13.0795C98.6129 12.5058 98.6961 12.0177 99.0362 11.5759C99.1333 11.4487 99.2027 11.296 99.2606 11.1456C99.3392 10.9444 99.2721 10.7616 99.1333 10.6043C99.3369 10.6182 99.5983 10.3568 99.6839 10.757C100.012 10.5604 99.7973 9.88027 100.475 10.0376C100.281 10.4771 100.093 10.8842 99.9175 11.2937C99.7857 11.599 99.7903 11.6013 99.9453 12.175C100.383 12.0825 100.116 11.4278 100.653 11.3307C100.66 11.6615 100.558 11.9298 100.454 12.1912C100.265 12.6747 100.066 13.1559 99.8435 13.6255C99.7834 13.7504 99.6168 13.8221 99.5012 13.9169C99.5729 14.0326 99.64 14.139 99.6955 14.2269C99.6538 14.486 99.4156 14.3727 99.3068 14.5091C99.3068 14.5323 99.286 14.6248 99.3068 14.6364C99.4988 14.7312 99.6145 14.8608 99.5844 15.0898C99.5544 15.3165 99.5243 15.5432 99.5174 15.7722C99.5081 16.0799 99.5867 16.3551 99.8852 16.5194L99.8898 16.5148C99.5891 16.5194 99.5058 16.76 99.4757 16.9751C99.4433 17.1902 99.5058 17.4192 99.5312 17.6783C100.052 17.5071 100.061 16.9959 100.306 16.679C100.48 16.4569 100.413 16.1169 100.262 15.8439L100.253 15.8647C100.38 15.837 100.505 15.8092 100.662 15.7745C100.801 16.0012 100.933 16.2163 101.07 16.4361C101.093 16.3829 101.134 16.3343 101.127 16.2904C101.056 15.7768 100.773 15.2957 100.868 14.7867C101.909 13.954 103.131 13.9077 104.389 13.8013C104.523 14.0326 104.688 14.2385 104.773 14.4744C105.18 15.6033 105.953 16.4986 106.652 17.4377C106.809 17.6506 106.968 17.8079 106.973 18.0947C106.975 18.1896 107.184 18.2798 107.38 18.4371C107.526 17.9698 107.561 17.5858 107.609 17.2064C107.794 15.7097 107.968 14.2107 108.174 12.7163C108.264 12.0663 108.417 11.4255 108.56 10.7848C108.615 10.5303 108.687 10.2712 108.805 10.0399C109.254 9.15158 109.902 8.86936 110.845 9.21404C111.859 9.58648 112.849 10.0283 113.862 10.447C114.313 10.4262 114.267 9.92885 114.537 9.67207C115.727 9.45462 116.932 9.56566 118.132 9.7993C118.327 9.83631 118.516 9.89183 118.713 9.91034C119.516 9.97974 119.978 10.5303 120.397 11.1156C120.661 11.488 120.862 11.9044 121.086 12.3046C121.269 12.6284 121.392 12.9361 121.082 13.2831C120.975 13.4034 120.973 13.6509 120.989 13.836C121.035 14.3611 121.015 14.8793 120.908 15.3951C120.753 16.1539 120.876 16.8964 121.005 17.6413C121.049 17.8935 121.098 18.1641 121.054 18.4093C120.968 18.8789 121.029 19.3254 121.123 19.7788C121.244 20.3664 121.244 20.3664 121.956 20.526C122.019 20.9123 122.005 21.2801 121.857 21.6687C121.746 21.9579 121.785 22.3049 121.762 22.6241C121.76 22.6542 121.766 22.7005 121.787 22.7143C122.296 23.0891 122.132 23.7438 122.414 24.2133C122.731 24.7385 122.699 25.2751 122.467 25.8188C122.342 26.1149 122.225 26.4133 122.1 26.7256C121.114 26.1727 120.464 25.3723 119.948 24.4516C119.807 24.1972 119.735 23.9034 119.641 23.6258C119.46 23.1007 119.291 22.5709 118.873 22.1245C118.158 22.3905 117.457 22.6519 116.71 22.9295C116.495 23.7808 116.171 24.602 116.104 25.4903C116.092 25.6499 116.085 25.8326 116.004 25.9622C115.858 26.2005 115.833 26.4341 115.833 26.7071C115.833 26.9222 115.717 27.1466 115.618 27.3502C115.509 27.5745 115.25 27.6717 115.033 27.5537C114.838 27.4496 114.644 27.3085 114.505 27.1373C113.915 26.4133 113.774 25.5273 113.726 24.6413C113.642 23.0983 113.617 21.5531 113.566 20.0101C113.561 19.8459 113.545 19.6793 113.564 19.5174C113.735 17.912 113.651 16.2996 113.726 14.6942C113.756 14.0372 113.813 13.3803 113.911 12.7325C113.985 12.2468 113.964 11.8003 113.638 11.333C113.566 11.4417 113.473 11.5273 113.441 11.6337C112.923 13.2669 112.65 14.9556 112.381 16.6397C112.294 17.1856 112.342 17.7547 112.354 18.3145C112.384 19.6724 112.196 20.9933 111.815 22.298C111.669 22.793 111.6 23.3412 111.641 23.8525C111.711 24.6899 111.583 25.4903 111.389 26.2907C111.25 26.8644 111.112 27.4404 110.966 28.0141C110.894 28.294 110.718 28.479 110.424 28.5137C109.481 28.6294 108.544 28.8376 107.505 28.7497C107.075 28.2662 106.601 27.7665 106.168 27.2322C105.712 26.6701 105.301 26.0732 104.863 25.4995C104.609 25.1641 104.401 24.8009 104.095 24.4909C103.82 24.211 103.737 23.7507 103.545 23.3852C103.193 22.7167 102.809 22.0643 102.467 21.3911C102.111 20.6879 101.791 19.9662 101.451 19.256C101.354 19.0524 101.241 18.8558 101.137 18.6569C100.484 19.027 100.484 19.027 99.9337 19.0409C99.6561 19.485 99.6608 19.9569 99.7533 20.4543C99.8435 20.9377 99.8736 21.4328 99.9569 21.9209C100.024 22.3072 100.086 22.7028 100.23 23.066C100.373 23.4315 100.568 23.7669 100.568 24.1833C100.568 24.3267 100.699 24.4724 100.776 24.6135C100.822 24.6991 100.928 24.787 100.917 24.8611C100.838 25.4186 101.162 25.865 101.285 26.3624C101.414 26.8921 101.775 27.2623 101.981 27.7342C102.106 28.0233 102.342 28.2685 102.379 28.6086C102.4 28.8052 102.538 28.8422 102.703 28.9093C102.809 28.9509 102.865 29.1638 102.904 29.3095C102.943 29.4576 102.881 29.6565 102.957 29.7675C103.554 30.6327 104.174 31.484 105.19 31.9143C105.215 31.9258 105.254 31.905 105.298 31.8981C105.68 31.5303 104.903 31.3128 105.118 31.0236C105.345 31.1856 105.58 31.3498 105.842 31.5349C105.974 31.4701 106.089 31.4238 106.196 31.3614C106.418 31.2295 106.649 31.3174 106.665 31.5094C106.693 31.8495 107.158 31.9397 107.068 32.3353C107.052 32.4116 107.271 32.5828 107.41 32.6476C108.065 32.9529 108.71 33.2883 109.393 33.5104C109.848 33.6608 110.283 33.9592 110.806 33.8667L110.778 33.8435C111.47 34.2761 111.435 34.3039 112.951 33.4989C113.029 33.5382 113.15 33.5613 113.196 33.6307C113.355 33.8713 113.554 33.9684 113.848 33.9684C114.986 33.9684 116.131 34.1211 117.246 33.7603C117.758 33.8829 118.209 33.4017 118.75 33.6215C118.852 33.6631 119.062 33.4456 119.284 33.3092C119.354 33.3716 119.449 33.5197 119.573 33.5567C119.717 33.5983 119.89 33.5405 120.099 33.5197C119.992 33.293 119.909 33.1172 119.782 32.8396C120.073 32.9668 120.247 33.0431 120.42 33.1195L120.397 33.0894C120.594 33.3045 120.651 33.2999 120.825 33.0501L120.788 33.0778C121.015 33.0339 121.26 33.0316 121.403 32.8002L121.366 32.828C121.528 32.7817 121.718 32.7748 121.776 32.5643L121.743 32.5967C121.905 32.5504 122.113 32.5712 122.148 32.3306L122.116 32.363C122.609 32.2844 123.02 32.0808 123.275 31.6274L123.261 31.6598C123.469 31.5048 123.684 31.3591 123.881 31.1879C124.188 30.9195 124.441 30.6165 124.242 30.1377C124.744 29.9156 125.114 29.6172 125.44 29.247C125.785 28.8584 126.164 28.4975 126.562 28.1621C126.964 27.8221 127.328 27.4612 127.522 26.9615C127.533 26.9315 127.557 26.9037 127.582 26.8852C128.616 26.1195 128.776 24.9166 129.123 23.8085C129.319 23.1839 129.516 22.5594 129.699 21.9325C129.761 21.7173 129.805 21.4883 129.807 21.2662C129.814 20.5792 129.812 19.8921 129.782 19.2051C129.763 18.7795 129.699 18.3561 129.634 17.9328C129.583 17.6136 129.435 17.3082 129.548 16.9658C129.583 16.8594 129.537 16.7091 129.491 16.5934C128.942 15.1916 128.385 13.792 127.834 12.3902C127.8 12.3023 127.753 12.1542 127.793 12.1126C128.202 11.7031 127.857 11.6384 127.554 11.4903C127.436 11.4325 127.365 11.222 127.325 11.067C127.089 10.137 126.937 9.88258 126.183 9.25799C126.069 9.41298 125.956 9.56566 125.845 9.71834C125.678 9.62812 125.512 9.5379 125.343 9.44537L125.38 9.47544C125.158 8.94339 124.76 8.55707 124.306 8.22627C123.724 7.80294 123.127 7.3958 122.534 6.98404C122.428 6.91001 122.319 6.82211 122.199 6.78047C121.785 6.64167 121.431 6.41497 121.135 6.09574C120.992 5.94306 120.811 5.84822 120.608 5.91068C120.425 5.96851 120.263 6.08186 120.066 5.94075C119.654 5.64465 119.03 5.68629 118.736 5.01081C118.815 4.95298 118.942 4.86045 119.104 4.74247C118.424 4.47182 117.818 4.18266 117.131 4.03229C116.05 3.79403 114.94 3.6853 113.885 3.31286C113.256 3.09079 112.587 3.2319 111.917 3.22496C112.22 3.15787 112.523 3.09079 112.814 3.02833C112.858 2.77387 112.893 2.56105 112.934 2.31815C112.87 2.30659 112.772 2.26032 112.703 2.28577C112.557 2.34129 112.386 2.40606 112.296 2.52172C111.845 3.09079 111.271 3.27354 110.568 3.1625C110.415 3.13937 110.23 3.14862 110.096 3.21339C109.821 3.34988 109.571 3.49561 109.326 3.18101C108.969 3.21339 108.613 3.24347 108.257 3.27585L108.278 3.29204C108.329 3.11161 108.324 2.8664 108.442 2.7623C108.625 2.60269 108.828 2.39912 109.131 2.45001C109.238 2.46852 109.573 2.25569 109.721 2.14697C109.929 1.99198 110.142 1.8393 110.369 1.70976C110.496 1.63574 110.547 1.56634 110.552 1.41135C110.556 1.27255 110.672 1.20778 110.836 1.24479C111.29 1.34426 111.646 1.19159 111.912 0.802955C111.366 0.853847 110.834 0.904739 110.272 0.957945C110.172 0.72199 110.445 0.620206 110.559 0.597073C111.35 0.43283 112.095 0.0927779 112.918 0.0372592C114.443 -0.0668384 115.937 0.00256002 117.383 0.557747C117.688 0.675725 118 0.782135 118.31 0.888546C120.129 1.50388 121.827 2.35517 123.39 3.46785C123.791 3.75239 124.165 4.07625 124.542 4.39317C124.892 4.68927 125.206 5.02006 125.648 5.20513C125.877 5.29997 126.062 5.52205 126.243 5.70942C127.365 6.86838 128.403 8.0921 129.201 9.5032C129.28 9.64431 129.398 9.76229 129.504 9.89877C129.613 9.89877 129.706 9.89415 129.798 9.89646C130.476 9.91034 130.754 10.3036 130.499 10.9097C130.439 11.0531 130.323 11.1734 130.201 11.3492C131.311 13.2391 131.871 15.2633 131.79 17.6922C131.656 17.366 131.577 17.2596 131.57 17.1509C131.531 16.3158 131.26 15.5432 130.973 14.7705C130.721 14.0951 130.471 13.4173 130.217 12.7418C130.159 12.5891 130.048 12.5683 129.916 12.6562C129.907 12.5961 129.893 12.5382 129.879 12.4804C129.893 12.5336 129.909 12.5845 129.923 12.6377C130.152 13.3571 130.379 14.0766 130.606 14.796C130.636 14.8908 130.638 15.0042 130.696 15.0759C131.2 15.6982 131.119 16.4893 131.327 17.1972C131.191 18.215 131.482 19.2167 131.436 20.2299C131.394 21.1112 131.468 21.9972 131.288 22.8716C131.281 22.904 131.293 22.941 131.279 22.9688C130.966 23.6304 131.054 24.3707 130.858 25.0554C130.751 25.4278 130.707 25.8373 130.33 26.0732C130.166 26.6261 129.692 27.0517 129.72 27.6925C129.729 27.9262 129.562 28.1667 129.479 28.3911C129.285 28.3819 129.16 28.3773 129.049 28.3726C128.489 29.0203 127.927 29.6565 127.383 30.3065C126.985 30.7831 126.608 31.2804 126.222 31.7662L126.25 31.7361C126.111 31.8194 125.933 31.8749 125.842 31.9929C125.31 32.6869 124.586 33.1495 123.874 33.6099C123.02 34.1604 122.139 34.6717 121.241 35.1482C120.374 35.6109 119.4 35.7636 118.454 35.9764C118.347 35.9995 118.22 35.9209 118.102 35.8977C117.885 35.8538 117.665 35.8191 117.492 35.7867C117.302 35.907 117.556 36.1082 117.302 36.1846C117.054 36.2586 116.786 35.9394 116.573 36.247C116.36 36.1452 116.148 36.0411 115.884 35.9116C115.784 36.1198 115.706 36.284 115.613 36.476C115.805 36.5431 115.953 36.6079 116.111 36.6449C116.42 36.7166 116.476 36.6542 116.541 36.2193ZM121.771 33.4665C121.887 33.3809 122.002 33.293 122.118 33.2074C122.204 33.0987 122.289 32.9922 122.375 32.8835C122.534 32.8696 122.738 32.9321 122.752 32.6638C122.932 32.6129 123.113 32.562 123.293 32.5088C123.309 32.4394 123.323 32.37 123.34 32.2983C123.314 32.3121 123.27 32.326 123.27 32.3376C123.272 32.3931 123.289 32.4486 123.296 32.5041C123.117 32.5458 122.893 32.4579 122.78 32.6869C122.655 32.7609 122.53 32.8326 122.405 32.9067C122.234 32.9367 122.137 33.0293 122.132 33.2074C121.952 33.1912 121.78 33.1889 121.776 33.4387C121.713 33.5127 121.651 33.5821 121.623 33.4179C121.672 33.4364 121.72 33.4503 121.771 33.4665ZM118.336 21.021C118.026 20.0356 117.829 19.6978 117.281 19.2097C117.077 19.9477 116.86 20.6509 116.911 21.4027C116.913 21.449 116.999 21.4883 117.05 21.5346C117.519 21.5161 117.903 21.2847 118.336 21.021ZM124.88 8.05278C124.924 7.99032 124.954 7.96487 124.961 7.9348C125.056 7.49065 124.355 7.29402 124.6 6.79204C124.605 6.78278 124.452 6.66018 124.364 6.6463C124.149 6.61391 123.927 6.61623 123.606 6.59772C124.013 7.20149 124.413 7.65258 124.88 8.05278ZM125.278 6.72727C125.532 6.89382 125.736 7.03262 125.944 7.15754C125.97 7.17142 126.039 7.1159 126.085 7.09045C125.794 6.59309 125.794 6.5931 125.278 6.72727ZM129.821 22.9781C129.923 22.7051 129.974 22.6241 129.979 22.5385C129.983 22.4668 129.932 22.3905 129.907 22.3165C129.849 22.3789 129.761 22.4344 129.74 22.5061C129.72 22.5848 129.766 22.6796 129.821 22.9781ZM113.802 2.25569C113.749 2.28345 113.649 2.32278 113.654 2.33897C113.67 2.41531 113.698 2.52866 113.753 2.55179C113.827 2.58187 113.936 2.55642 114.019 2.52866C114.045 2.51941 114.068 2.39218 114.049 2.3783C113.978 2.32278 113.885 2.29271 113.802 2.25569ZM124.755 5.60301C124.709 5.57294 124.665 5.54287 124.619 5.51279C124.547 5.61458 124.471 5.71405 124.406 5.82046C124.397 5.83665 124.417 5.8968 124.438 5.90374C124.487 5.92224 124.577 5.94306 124.591 5.92224C124.656 5.82277 124.702 5.70942 124.755 5.60301ZM96.8524 22.4853C96.9265 22.4969 97.0005 22.5061 97.0745 22.5177C97.0283 22.2286 96.982 21.9394 96.9357 21.6525C96.8825 21.6595 96.8293 21.6687 96.7738 21.6757C96.8016 21.944 96.827 22.2147 96.8524 22.4853ZM98.9807 18.1988C98.9598 18.2983 98.9043 18.4047 98.9321 18.481C98.9529 18.5342 99.0871 18.5458 99.1727 18.5643C99.1773 18.5666 99.2305 18.4556 99.2143 18.4348C99.1495 18.3492 99.0663 18.2798 98.9807 18.1988ZM116.874 2.57493C116.069 2.43844 115.262 2.30196 114.457 2.16548C115.153 2.38524 115.821 2.61194 116.559 2.81782C116.906 2.91498 117.387 2.96819 117.808 3.0399C117.498 2.88722 117.186 2.73223 116.874 2.57493ZM123.689 6.14432C123.777 6.19521 123.853 6.24148 123.932 6.28774C123.946 6.2623 123.98 6.21834 123.973 6.2114C123.92 6.15357 123.862 6.10037 123.802 6.05179C123.798 6.04947 123.758 6.0888 123.689 6.14432ZM124.313 31.7014C124.334 31.6783 124.357 31.6552 124.378 31.632C124.325 31.6158 124.272 31.5904 124.216 31.5835C124.195 31.5811 124.172 31.6228 124.149 31.6459C124.205 31.6644 124.258 31.6829 124.313 31.7014ZM97.0676 16.9751C97.0699 16.9288 97.0722 16.8826 97.0745 16.8363C97.019 16.8525 96.9658 16.8687 96.9103 16.8849C96.9288 16.9265 96.938 16.9751 96.9658 17.0075C96.9751 17.0167 97.0329 16.9867 97.0676 16.9751ZM120.952 33.7279C120.929 33.7232 120.906 33.7186 120.885 33.714C120.901 33.7371 120.918 33.7579 120.931 33.7811C120.938 33.7649 120.945 33.7464 120.952 33.7279ZM113.471 35.442C113.425 35.4166 113.381 35.3888 113.33 35.3726C113.318 35.3703 113.279 35.4143 113.277 35.4374C113.277 35.4605 113.314 35.5068 113.325 35.5045C113.376 35.4929 113.422 35.4651 113.471 35.442ZM121.621 4.60136C121.6 4.61987 121.556 4.64994 121.561 4.65688C121.581 4.70083 121.614 4.74247 121.644 4.78411C121.66 4.73784 121.683 4.69389 121.692 4.64763C121.69 4.63606 121.644 4.61755 121.621 4.60136ZM98.8719 17.2087H99.0038L98.9321 17.0399L98.8719 17.2087ZM116.33 1.81155C116.596 1.83468 116.86 1.86012 117.126 1.88326C116.916 1.76528 116.717 1.63574 116.488 1.53626C116.381 1.49 116.217 1.50388 116.078 1.49C116.164 1.59641 116.247 1.70513 116.33 1.81155ZM118.556 2.03362C118.528 2.07989 118.502 2.12846 118.475 2.17473C118.581 2.2395 118.687 2.30659 118.796 2.36673C118.812 2.37599 118.873 2.34823 118.877 2.32972C118.891 2.27883 118.907 2.18861 118.886 2.17704C118.782 2.1169 118.667 2.07989 118.556 2.03362ZM119.631 2.78544C120.156 2.98669 120.624 3.16713 121.091 3.34525C121.214 3.33831 121.47 3.33831 121.436 3.3198C121.144 3.16713 120.809 3.00982 120.453 2.85252C120.422 2.84327 120.131 2.82708 119.631 2.78544ZM116.191 34.7989C115.863 34.8637 115.537 34.9261 115.211 34.9909C114.938 35.1182 114.662 35.2454 114.389 35.3726C114.012 35.2685 113.589 34.9955 113.367 35.4675C112.916 35.4166 112.465 35.3634 112.014 35.3125C111.928 35.4258 111.843 35.5415 111.755 35.6548C111.819 35.6502 111.935 35.6618 111.944 35.6386C111.979 35.5369 111.984 35.4235 112.009 35.3148C112.449 35.3819 112.9 35.7196 113.323 35.3981C113.663 35.3657 114.003 35.3333 114.341 35.2986C114.753 35.3819 115.044 35.2893 115.185 34.9747C115.588 35.1505 115.976 35.2916 116.166 34.8429C116.36 34.7596 116.552 34.6833 116.501 35.0048C116.397 34.9354 116.296 34.866 116.191 34.7989ZM118.799 35.0302C118.963 34.9955 119.194 34.9447 119.467 34.8729C121.04 34.4566 122.218 33.8204 122.206 33.7926C122.201 33.7811 122.019 33.8644 121.345 34.0934C121.345 34.0934 121.029 34.1998 120.668 34.3154C120.124 34.4889 118.893 34.8382 117.251 35.25C117.767 35.176 118.283 35.1043 118.799 35.0302Z" fill="#A3FB22"/>
<path d="M124.721 12.8345C125.248 13.3087 125.276 13.9101 125.105 14.4723C124.862 15.275 124.834 16.08 124.825 16.9035C124.808 18.2152 124.758 19.5268 124.739 20.8384C124.732 21.2965 124.804 21.7568 124.808 22.2148C124.818 23.2304 124.818 24.2482 124.801 25.2637C124.799 25.4534 124.727 25.6524 124.644 25.8259C124.424 26.2862 123.853 26.3903 123.492 26.0248C123.335 25.8675 123.215 25.657 123.124 25.4511C122.842 24.8149 122.687 24.1487 122.669 23.4501C122.636 22.2356 122.59 21.0212 122.56 19.8067C122.555 19.58 122.602 19.351 122.629 19.1243C122.692 18.6038 122.729 18.0879 122.655 17.5559C122.491 16.3645 122.757 15.2056 123.016 14.0513C123.05 13.9009 123.141 13.7158 123.261 13.6395C123.728 13.3573 124.219 13.1074 124.721 12.8345Z" fill="#A3FB22"/>
<path d="M128.165 14.8792C128.729 15.8184 128.683 16.8663 128.653 17.8656C128.63 18.6313 128.341 19.397 128.126 20.1488C128.047 20.4218 127.869 20.6832 127.686 20.9053C127.406 21.2453 126.981 21.2476 126.641 20.9562C126.381 20.7341 126.229 20.4496 126.152 20.1211C125.947 19.2258 125.731 18.3306 125.537 17.4307C125.396 16.7714 125.396 16.126 125.789 15.5315C126.307 14.7496 126.962 14.5114 127.906 14.7774C127.998 14.8052 128.089 14.8491 128.165 14.8792Z" fill="#A3FB22"/>
<path d="M125.352 9.44299C125.415 9.65813 125.452 9.88483 125.542 10.0884C125.859 10.8078 125.051 11.8627 124.436 12.0154C123.807 12.1704 123.09 11.5712 123.152 10.9027C123.198 10.4123 123.349 9.94498 123.666 9.55172C124.029 9.09832 124.411 9.01041 124.959 9.25099C125.107 9.31576 125.246 9.39904 125.389 9.47538C125.389 9.47307 125.352 9.44299 125.352 9.44299Z" fill="#A3FB22"/>
<path d="M128.598 22.918C128.653 23.457 128.63 23.8757 128.362 24.2504C128.093 24.6229 127.693 24.7964 127.244 24.6946C126.798 24.5928 126.592 24.2504 126.53 23.8456C126.435 23.228 126.61 22.6635 127.05 22.2147C127.617 21.6364 128.332 21.8446 128.547 22.6334C128.581 22.7607 128.593 22.8925 128.598 22.918Z" fill="#A3FB22"/>
<path d="M101.944 24.8516C102.342 24.8169 102.65 24.9673 102.747 25.2449C102.846 25.5271 102.675 26.0244 102.418 26.1887C102.27 26.2835 101.921 26.2673 101.775 26.1378C101.514 25.9065 101.419 25.6057 101.467 25.2657C101.498 25.0575 101.727 24.8701 101.944 24.8516Z" fill="#A3FB22"/>
<path d="M115.181 29.645C115.724 29.7746 116.004 30.0707 116.064 30.575C116.097 30.8456 115.914 31.0816 115.643 31.1325C115.201 31.2134 114.794 30.8063 114.91 30.3806C114.975 30.1401 115.081 29.9087 115.181 29.645Z" fill="#A3FB22"/>
<path d="M126.229 31.7664C126.351 31.7641 126.476 31.7641 126.634 31.7618C126.078 32.6709 125.401 33.351 124.746 33.6471C124.906 33.2585 125.227 33.0757 125.47 32.8305C125.792 32.5066 126.15 32.2129 126.257 31.7363L126.229 31.7664Z" fill="#A3FB22"/>
<path d="M107.147 3.56738C107.352 3.69924 107.537 3.82184 107.723 3.93982C107.581 4.17809 107.489 4.40248 107.179 4.2845C107.114 4.25905 107.015 4.27062 106.95 4.30301C106.825 4.37009 106.702 4.4233 106.614 4.27756C106.508 4.10406 106.589 3.96758 106.739 3.86117C106.869 3.76864 106.998 3.67379 107.147 3.56738Z" fill="#A3FB22"/>
<path d="M106.726 30.3761C106.527 30.1078 106.316 29.8394 106.131 29.5549C106.101 29.5086 106.156 29.3629 106.214 29.3097C106.274 29.2542 106.402 29.2102 106.473 29.2334C106.767 29.3282 107.036 29.9505 106.922 30.2558C106.906 30.2998 106.823 30.3183 106.726 30.3761Z" fill="#A3FB22"/>
<path d="M106.348 3.62305C105.756 4.24995 105.27 4.57843 104.623 4.83289C104.667 4.68484 104.671 4.55993 104.715 4.54605C105.15 4.398 105.469 4.09264 105.803 3.79886C105.881 3.72946 106.02 3.72483 106.348 3.62305Z" fill="#A3FB22"/>
<path d="M129.222 18.3052C129.199 18.8164 129.037 19.3508 129.454 19.7857C129.292 19.8898 129.185 19.9592 129.046 20.0494C129.049 19.7302 129.058 19.4456 129.051 19.1634C129.044 18.8835 129.019 18.6036 129 18.3237C129.074 18.3167 129.148 18.3098 129.222 18.3052Z" fill="#A3FB22"/>
<path d="M95.7791 19.5219C95.7027 18.9251 95.1614 18.4347 95.3835 17.7222C95.941 18.2681 95.7236 18.9366 95.7791 19.5219Z" fill="#A3FB22"/>
<path d="M103.054 26.8159C103.186 27.0033 103.316 27.1143 103.344 27.2485C103.383 27.4336 103.163 27.6186 102.969 27.5839C102.802 27.5562 102.624 27.4498 102.68 27.2716C102.726 27.1166 102.895 27.001 103.054 26.8159Z" fill="#A3FB22"/>
<path d="M113.635 38.6966C113.462 38.5324 113.286 38.4422 113.279 38.3404C113.27 38.2224 113.381 38.0466 113.49 37.9818C113.638 37.8939 113.843 37.9888 113.857 38.1484C113.871 38.2918 113.742 38.4514 113.635 38.6966Z" fill="#A3FB22"/>
<path d="M126.974 12.2907C126.738 11.9714 126.488 11.7655 126.525 11.2705C126.754 11.6152 126.911 11.8511 127.062 12.0894C127.071 12.101 127.041 12.1403 126.974 12.2907Z" fill="#A3FB22"/>
<path d="M120.85 35.9141C120.51 36.1917 120.21 36.3605 119.819 36.2981C119.749 36.0714 119.907 35.9835 120.048 35.958C120.288 35.9164 120.536 35.9279 120.85 35.9141Z" fill="#A3FB22"/>
<path d="M109.899 31.4144C109.839 31.4838 109.767 31.6226 109.656 31.6873C109.534 31.7591 109.321 31.6018 109.333 31.4468C109.342 31.345 109.42 31.2108 109.506 31.1599C109.645 31.0766 109.837 31.1877 109.899 31.4144Z" fill="#A3FB22"/>
<path d="M123.936 1.67524C123.761 1.85105 123.677 1.98753 123.559 2.03611C123.423 2.09395 123.212 1.9112 123.247 1.77471C123.275 1.67062 123.374 1.51794 123.457 1.50869C123.578 1.49481 123.71 1.58965 123.936 1.67524Z" fill="#A3FB22"/>
<path d="M120.425 33.1171C120.492 33.0176 120.538 32.8672 120.633 32.8256C121.001 32.6613 121.382 32.5318 121.76 32.3884L121.727 32.3652C121.734 32.4393 121.739 32.5156 121.746 32.5896L121.778 32.5572C121.607 32.5919 121.394 32.5596 121.369 32.821L121.406 32.7932C121.16 32.7955 120.924 32.8186 120.79 33.0708L120.827 33.043C120.684 33.0569 120.543 33.0685 120.399 33.0823C120.402 33.0893 120.425 33.1194 120.425 33.1171Z" fill="#A3FB22"/>
<path d="M104.107 30.311C104.292 30.4776 104.477 30.6418 104.66 30.813C104.678 30.8292 104.671 30.8708 104.678 30.9079C104.549 31.1161 104.401 30.9657 104.304 30.8894C104.165 30.7829 104.063 30.6256 103.945 30.4915C104.007 30.4383 104.072 30.3874 104.135 30.3342C104.135 30.3365 104.107 30.311 104.107 30.311Z" fill="#A3FB22"/>
<path d="M114.457 30.9611C114.473 31.204 114.322 31.3613 114.156 31.315C114.054 31.2873 113.938 31.1855 113.899 31.0883C113.841 30.9472 114.01 30.7159 114.142 30.7506C114.271 30.7876 114.38 30.9079 114.457 30.9611Z" fill="#A3FB22"/>
<path d="M96.8362 15.3699C96.6859 15.5156 96.5378 15.6614 96.3458 15.8464C96.2255 15.5295 96.2764 15.2959 96.5216 15.0923C96.6304 15.201 96.7252 15.2959 96.8201 15.3861C96.8247 15.3814 96.8362 15.3699 96.8362 15.3699Z" fill="#A3FB22"/>
<path d="M96.6581 27.5791C96.783 27.7688 96.9126 27.8821 96.9241 28.0047C96.938 28.1713 96.7969 28.2847 96.6188 28.2962C96.4661 28.3078 96.2903 28.125 96.3412 27.9816C96.3875 27.8567 96.5124 27.7595 96.6581 27.5791Z" fill="#A3FB22"/>
<path d="M128.503 2.1377C128.644 2.3297 128.764 2.4338 128.794 2.55871C128.808 2.61423 128.648 2.76691 128.554 2.77847C128.466 2.79004 128.278 2.6605 128.285 2.61192C128.299 2.47775 128.396 2.35283 128.503 2.1377Z" fill="#A3FB22"/>
<path d="M100.269 15.8465C100.16 15.6545 100.031 15.4717 99.9546 15.2682C99.9268 15.1918 100.024 15.0692 100.098 14.8818C100.399 15.245 100.253 15.5643 100.26 15.8627C100.26 15.8673 100.269 15.8465 100.269 15.8465Z" fill="#A3FB22"/>
<path d="M102.885 22.9572C102.788 23.0728 102.742 23.1792 102.68 23.1908C102.499 23.2255 102.379 23.1098 102.351 22.9433C102.342 22.8831 102.462 22.7397 102.485 22.749C102.61 22.7906 102.726 22.8693 102.885 22.9572Z" fill="#A3FB22"/>
<path d="M122.07 35.4515C121.799 35.5718 121.611 35.6643 121.417 35.736C121.387 35.7476 121.301 35.6782 121.285 35.6296C121.267 35.5787 121.278 35.4862 121.313 35.4515C121.514 35.2618 121.732 35.1901 122.07 35.4515Z" fill="#A3FB22"/>
<path d="M117.101 36.6913C117.205 36.5848 117.288 36.4576 117.408 36.3975C117.448 36.3766 117.575 36.527 117.66 36.5987C117.494 36.8069 117.341 36.8671 117.101 36.6913Z" fill="#A3FB22"/>
<path d="M110.994 4.13167C110.866 4.27509 110.818 4.3815 110.748 4.39538C110.674 4.41157 110.559 4.36299 110.51 4.30285C110.482 4.26815 110.542 4.09697 110.584 4.09003C110.686 4.06689 110.797 4.10622 110.994 4.13167Z" fill="#A3FB22"/>
<path d="M117.702 29.0364C117.535 29.1035 117.455 29.1359 117.374 29.166C117.337 29.0596 117.295 28.9531 117.269 28.8421C117.267 28.8305 117.387 28.7611 117.411 28.7773C117.501 28.8375 117.575 28.9184 117.702 29.0364Z" fill="#A3FB22"/>
<path d="M104.313 25.3376C104.264 25.3561 104.202 25.4024 104.167 25.3862C104.123 25.3677 104.102 25.2983 104.07 25.2497C104.121 25.2312 104.181 25.185 104.218 25.1988C104.26 25.2174 104.28 25.2891 104.313 25.3376Z" fill="#A3FB22"/>
<path d="M102.842 6.21825C102.795 6.28996 102.751 6.35936 102.707 6.42645C102.675 6.38018 102.622 6.33854 102.617 6.28996C102.613 6.23676 102.65 6.17661 102.67 6.12109C102.717 6.14654 102.765 6.1743 102.842 6.21825Z" fill="#A3FB22"/>
<path d="M103.221 5.64453C103.341 5.7255 103.408 5.77176 103.478 5.81571C103.39 5.88049 103.307 5.95914 103.209 6.0054C103.172 6.0216 103.101 5.96376 103.045 5.93832C103.101 5.8481 103.154 5.75788 103.221 5.64453Z" fill="#A3FB22"/>
<path d="M103.734 4.92285C103.843 5.0015 103.913 5.05239 103.984 5.10329C103.931 5.16112 103.885 5.23977 103.818 5.26984C103.778 5.28835 103.651 5.2282 103.653 5.2097C103.658 5.12642 103.695 5.04546 103.734 4.92285Z" fill="#A3FB22"/>
<path d="M119.842 9.42205C120.043 9.35034 120.126 9.30408 120.212 9.29714C120.263 9.29251 120.318 9.35034 120.372 9.38042C120.321 9.41511 120.272 9.47295 120.217 9.47757C120.136 9.48451 120.05 9.45675 119.842 9.42205Z" fill="#A3FB22"/>
<path d="M101.458 10.7036C101.384 10.8748 101.308 11.0437 101.176 11.3467C101.063 10.8933 101.178 10.7476 101.486 10.7244L101.458 10.7036Z" fill="#A3FB22"/>
<path d="M104.357 5.94753C104.28 6.02155 104.199 6.1002 104.118 6.17885C104.065 6.12102 103.959 6.02155 103.968 6.0123C104.04 5.92208 104.132 5.84574 104.218 5.76709C104.253 5.81336 104.287 5.85962 104.357 5.94753Z" fill="#A3FB22"/>
<path d="M123.33 7.81919C123.256 7.90015 123.196 7.9788 123.187 7.97418C123.09 7.91403 122.999 7.84001 122.907 7.77061C122.946 7.73128 123.002 7.65263 123.023 7.66188C123.127 7.6989 123.219 7.76135 123.33 7.81919Z" fill="#A3FB22"/>
<path d="M96.4245 26.8896C96.3135 26.9613 96.2417 27.0446 96.1747 27.0423C96.1191 27.04 96.0197 26.9289 96.0266 26.878C96.0335 26.8156 96.1307 26.7184 96.1909 26.7184C96.2556 26.7138 96.3204 26.8063 96.4245 26.8896Z" fill="#A3FB22"/>
<path d="M129.798 4.15039C129.842 4.18278 129.884 4.21285 129.925 4.24524C129.87 4.29613 129.812 4.34471 129.757 4.3956C129.729 4.35165 129.673 4.30075 129.68 4.26374C129.692 4.21748 129.757 4.1874 129.798 4.15039Z" fill="#A3FB22"/>
<path d="M104.135 30.3364C104.114 30.2763 104.093 30.2161 104.074 30.156C104.033 30.0102 103.936 29.8552 104.139 29.7535C104.158 29.7442 104.199 29.7581 104.22 29.7743C104.405 29.8992 104.338 30.038 104.234 30.1745C104.195 30.2254 104.146 30.267 104.105 30.3133C104.107 30.311 104.135 30.3364 104.135 30.3364Z" fill="#A3FB22"/>
<path d="M103.064 33.9775C103.121 33.9937 103.226 34.0122 103.226 34.0238C103.221 34.1025 103.191 34.1811 103.17 34.2574C103.101 34.2066 103.031 34.1533 102.964 34.1025C102.997 34.0608 103.031 34.0192 103.064 33.9775Z" fill="#A3FB22"/>
<path d="M99.8921 16.5219C99.8667 16.3785 99.8389 16.2328 99.8134 16.0893C99.8389 16.087 99.8643 16.0824 99.8898 16.0801C99.8921 16.2258 99.8944 16.3739 99.8967 16.5196C99.8967 16.5173 99.8921 16.5219 99.8921 16.5219Z" fill="#A3FB22"/>
<path d="M121.76 32.3909C121.757 32.0948 121.785 32.0763 122.125 32.1596L122.102 32.1342C122.107 32.2082 122.113 32.2822 122.118 32.3586L122.15 32.3262C122.009 32.3401 121.868 32.3539 121.727 32.3678L121.76 32.3909Z" fill="#A3FB22"/>
<path d="M100.607 22.5342C100.683 22.5758 100.755 22.5943 100.76 22.6221C100.769 22.703 100.75 22.7886 100.743 22.8719C100.702 22.8511 100.63 22.8372 100.623 22.8071C100.602 22.7285 100.612 22.6429 100.607 22.5342Z" fill="#A3FB22"/>
<path d="M101.023 22.1591C100.97 22.1591 100.919 22.1591 100.866 22.1591C100.866 22.1336 100.866 22.0874 100.866 22.0874C100.917 22.0827 100.97 22.0851 101.021 22.0851C101.023 22.1105 101.023 22.1336 101.023 22.1591Z" fill="#A3FB22"/>
<path d="M108.266 3.27832C108.252 3.36622 108.25 3.46107 108.218 3.53972C108.204 3.57211 108.12 3.57442 108.07 3.5883C108.067 3.53741 108.044 3.46338 108.067 3.43794C108.13 3.37779 108.213 3.34078 108.287 3.2922C108.287 3.29451 108.266 3.27832 108.266 3.27832Z" fill="#A3FB22"/>
<path d="M121.283 6.54454C121.2 6.56768 121.123 6.60932 121.098 6.5885C121.035 6.53992 120.998 6.46358 120.95 6.39649C121.001 6.38493 121.066 6.34792 121.098 6.36642C121.165 6.40575 121.214 6.47515 121.283 6.54454Z" fill="#A3FB22"/>
<path d="M124.045 30.4799C124.02 30.4984 123.994 30.5169 123.971 30.5331C123.95 30.5031 123.927 30.473 123.906 30.4429C123.936 30.4337 123.969 30.4105 123.996 30.4152C124.013 30.4198 124.027 30.4568 124.045 30.4799Z" fill="#A3FB22"/>
<path d="M122.877 31.6877C122.983 31.3777 123.124 31.5281 123.263 31.6576L123.277 31.6252C123.136 31.6391 122.995 31.653 122.854 31.6669L122.877 31.6877Z" fill="#A3FB22"/>
<path d="M122.504 31.9213C122.537 31.6969 122.71 31.6992 122.877 31.6854L122.854 31.6646C122.833 31.9074 122.643 31.8843 122.479 31.8982L122.504 31.9213Z" fill="#A3FB22"/>
<path d="M95.5871 17.4192C95.5755 17.3567 95.5663 17.2942 95.5547 17.2318C95.5778 17.2272 95.601 17.2248 95.6241 17.2202C95.601 17.278 95.5801 17.3382 95.557 17.396L95.5871 17.4192Z" fill="#A3FB22"/>
<path d="M103.619 24.9235C103.591 24.9166 103.566 24.9096 103.538 24.9027C103.563 24.8749 103.586 24.8425 103.619 24.8217C103.626 24.8171 103.66 24.8518 103.681 24.8703C103.663 24.8865 103.642 24.905 103.619 24.9235Z" fill="#A3FB22"/>
<path d="M122.125 32.1595C122.15 31.9166 122.336 31.9328 122.507 31.9235L122.481 31.9004C122.449 32.1317 122.266 32.1155 122.104 32.1363L122.125 32.1595Z" fill="#A3FB22"/>
<path d="M110.808 33.8669C110.797 33.8044 110.771 33.742 110.778 33.6818C110.781 33.654 110.841 33.6309 110.876 33.6055C110.882 33.6355 110.903 33.6749 110.892 33.6934C110.862 33.7466 110.818 33.7928 110.778 33.8414C110.781 33.8437 110.808 33.8669 110.808 33.8669Z" fill="#A3FB22"/>
<path d="M100.299 13.6369C100.26 13.6554 100.221 13.6716 100.181 13.6901C100.177 13.6369 100.17 13.5837 100.174 13.5305C100.177 13.512 100.211 13.4981 100.232 13.4819C100.253 13.5351 100.276 13.586 100.299 13.6369Z" fill="#A3FB22"/>
<path d="M101.486 10.7245C101.498 10.632 101.509 10.5417 101.521 10.4492C101.539 10.4654 101.578 10.4932 101.576 10.4978C101.539 10.5672 101.498 10.6343 101.458 10.7014C101.458 10.7037 101.486 10.7245 101.486 10.7245Z" fill="#A3FB22"/>
<path d="M100.769 20.1442C100.741 20.1812 100.713 20.246 100.686 20.2483C100.646 20.2506 100.605 20.2043 100.57 20.1743C100.565 20.1696 100.598 20.1025 100.607 20.1025C100.66 20.1095 100.711 20.128 100.769 20.1442Z" fill="#A3FB22"/>
<path d="M100.667 9.63526C100.639 9.67458 100.614 9.74398 100.591 9.74398C100.54 9.74167 100.489 9.70465 100.438 9.68152C100.459 9.65839 100.477 9.61906 100.5 9.61906C100.551 9.61212 100.605 9.626 100.667 9.63526Z" fill="#A3FB22"/>
<path d="M109.164 3.51855C109.136 3.53475 109.108 3.56251 109.08 3.56251C109.055 3.56251 109.03 3.53706 109.002 3.52318C109.057 3.52087 109.111 3.51855 109.164 3.51855Z" fill="#A3FB22"/>
<path d="M95.5547 17.396C95.5061 17.4515 95.4598 17.507 95.4113 17.5626C95.409 17.5325 95.3997 17.4839 95.409 17.477C95.4622 17.4492 95.5223 17.4353 95.5824 17.4168C95.5871 17.4191 95.5547 17.396 95.5547 17.396Z" fill="#A3FB22"/>
<path d="M98.4047 11.9763C98.3491 11.8652 98.3376 11.6987 98.4833 11.7542C98.6129 11.8028 98.5527 11.9508 98.3815 11.9601L98.4047 11.9763Z" fill="#A3FB22"/>
</svg>
