<svg width="18" height="19" viewBox="0 0 18 19" fill="none" xmlns="http://www.w3.org/2000/svg">
<path d="M0.039978 18.3481C0.465875 16.7901 0.883391 15.2638 1.29439 13.7601C1.10969 13.3569 0.920642 12.9776 0.759533 12.5867C0.28459 11.432 0.073193 10.2257 0.124723 8.97996C0.22592 6.54098 1.16277 4.4711 2.92968 2.78737C4.2676 1.51248 5.86192 0.732699 7.68657 0.456735C9.71672 0.149729 11.6426 0.491502 13.4325 1.50999C15.1652 2.4962 16.4314 3.91296 17.2326 5.7373C17.6865 6.77069 17.9184 7.85748 17.9553 8.98679C18.0081 10.6007 17.6458 12.118 16.8763 13.5329C16.1486 14.8711 15.1379 15.9539 13.8556 16.7815C12.897 17.3998 11.8592 17.8195 10.7396 18.0362C8.82954 18.4056 6.99154 18.1712 5.23797 17.339C4.91017 17.1834 4.63048 17.144 4.27567 17.2437C2.93279 17.6211 1.57998 17.9626 0.230576 18.3165C0.182772 18.3289 0.132794 18.3329 0.039978 18.3481ZM2.96476 13.4935C2.72046 14.3897 2.48051 15.2694 2.23341 16.1768C2.31381 16.1622 2.36379 16.1566 2.41159 16.1442C3.22676 15.9328 4.0413 15.7176 4.85833 15.5131C4.94214 15.492 5.05203 15.5118 5.1315 15.5503C5.34072 15.6512 5.53536 15.7822 5.74396 15.884C7.21163 16.6002 8.75131 16.8311 10.3602 16.5344C12.2609 16.1839 13.8006 15.2272 14.9513 13.6825C16.1446 12.0811 16.6121 10.2698 16.3495 8.28492C16.1167 6.52546 15.3378 5.03606 14.03 3.84187C12.4698 2.41735 10.6204 1.77509 8.50981 1.91695C6.96733 2.02032 5.57726 2.55394 4.39766 3.54759C2.31753 5.29992 1.41794 7.54705 1.72867 10.258C1.84259 11.2519 2.17785 12.177 2.68973 13.0372C2.77913 13.188 2.8707 13.3376 2.96476 13.4935Z" fill="#EDEDED"/>
<path d="M11.368 13.5707C10.8586 13.5893 10.3859 13.4176 9.9131 13.2503C9.02375 12.9349 8.20579 12.4947 7.47816 11.886C6.7316 11.2614 6.08593 10.5484 5.51662 9.76117C5.1944 9.31572 4.89329 8.85878 4.70549 8.33851C4.32429 7.28246 4.4466 6.31954 5.23227 5.47426C5.46198 5.22716 5.73143 5.11883 6.06265 5.1449C6.15546 5.15204 6.24921 5.16353 6.3414 5.15639C6.5528 5.14025 6.6897 5.24113 6.76947 5.42304C6.92934 5.78716 7.08238 6.15439 7.23697 6.521C7.3332 6.74947 7.42167 6.98166 7.52349 7.20765C7.59861 7.37434 7.59644 7.52769 7.48748 7.67545C7.31271 7.9123 7.14043 8.15133 6.95914 8.38321C6.81169 8.57195 6.79493 8.65173 6.9191 8.85878C7.60109 9.99585 8.53235 10.8486 9.75852 11.3766C10.2449 11.5861 10.2589 11.5073 10.5153 11.2003C10.6941 10.9864 10.8667 10.7666 11.0368 10.5456C11.2079 10.3237 11.3134 10.279 11.5683 10.3963C12.1692 10.6723 12.764 10.9616 13.3613 11.2456C13.5127 11.3176 13.5782 11.4337 13.577 11.6048C13.5717 12.36 13.2594 12.9213 12.5768 13.2745C12.1956 13.4719 11.8005 13.5806 11.368 13.5707Z" fill="#EDEDED"/>
</svg>
