<svg width="13" height="12" viewBox="0 0 13 12" fill="none" xmlns="http://www.w3.org/2000/svg">
<path fill-rule="evenodd" clip-rule="evenodd" d="M6.83457 0.639231C6.98459 0.489254 7.18804 0.405003 7.40017 0.405003C7.6123 0.405003 7.81575 0.489254 7.96577 0.639231L12.7658 5.43923C12.9157 5.58925 13 5.7927 13 6.00483C13 6.21696 12.9157 6.42041 12.7658 6.57043L7.96577 11.3704C7.81489 11.5162 7.61281 11.5968 7.40305 11.595C7.19329 11.5931 6.99264 11.509 6.84432 11.3607C6.69599 11.2124 6.61185 11.0117 6.61003 10.802C6.60821 10.5922 6.68884 10.3901 6.83457 10.2392L10.269 6.80483L1.00017 6.80483C0.787997 6.80483 0.584514 6.72055 0.434484 6.57052C0.284455 6.42049 0.200171 6.217 0.200171 6.00483C0.200171 5.79266 0.284455 5.58918 0.434484 5.43915C0.584514 5.28912 0.787997 5.20483 1.00017 5.20483L10.269 5.20483L6.83457 1.77043C6.68459 1.62041 6.60034 1.41696 6.60034 1.20483C6.60034 0.992701 6.68459 0.789253 6.83457 0.639231Z" fill="#CCFD5D"/>
</svg>
