<svg width="96" height="46" viewBox="0 0 96 46" fill="none" xmlns="http://www.w3.org/2000/svg">
<path d="M17.6863 3.59821H22.0486V23.0619H17.6863L15.5039 16.8758V23.0593H11.1417V3.59821H15.5039L17.6837 9.77139V3.59821H17.6863Z" fill="#1D1E1E"/>
<path d="M35.8576 19.3111L36.6264 23.0593H32.1532L31.3845 19.3111H28.325L27.5562 23.0593H23.083L23.8518 19.3111L24.8475 14.4458L27.0686 3.59821H32.6433L34.8645 14.4458L35.8576 19.3111ZM30.3887 14.4458L29.8547 11.8403L29.3207 14.4458H30.3887Z" fill="#1D1E1E"/>
<path d="M48.1963 8.46349V18.1941C48.1963 20.8821 46.2434 23.0593 43.834 23.0593H41.6542C39.2448 23.0593 37.2919 20.8821 37.2919 18.1941V8.46349C37.2919 5.77546 39.2448 3.59821 41.6542 3.59821H43.834C46.2434 3.59821 48.1963 5.77546 48.1963 8.46349ZM43.834 9.67852C43.834 9.0078 43.3464 8.46349 42.7428 8.46349C42.1417 8.46349 41.6516 9.0078 41.6516 9.67852V16.9764C41.6516 17.6472 42.1392 18.1915 42.7428 18.1915C43.3464 18.1915 43.834 17.6472 43.834 16.9764V9.67852Z" fill="#1D1E1E"/>
<path d="M10.9044 30.8113V33.2439C10.9044 35.9319 8.95153 38.1092 6.54211 38.1092H4.36228V45.4071H3.05176e-05V25.946H6.54211C8.95153 25.946 10.9044 28.1258 10.9044 30.8113ZM6.54211 32.0289C6.54211 31.3582 6.05455 30.8139 5.4509 30.8139H4.3597V33.2465H5.4509C6.05455 33.2465 6.54211 32.6996 6.54211 32.0289Z" fill="#1D1E1E"/>
<path d="M23.0702 25.946V30.8113H16.5281V33.2439H20.8903V38.1092H16.5281V40.5418H23.0702V45.4071H12.1658V25.946H23.0702Z" fill="#1D1E1E"/>
<path d="M31.1471 25.946H35.5094V45.4097H31.1471L28.9673 39.2262V45.4097H24.6025V25.946H28.9647L31.1446 32.1192V25.946H31.1471Z" fill="#1D1E1E"/>
<path d="M37.1913 32.906V30.8139C37.1913 28.1258 39.1442 25.9486 41.5536 25.9486H47.007V30.8139H42.7531C42.4358 30.8139 42.1314 30.9557 41.9044 31.206C41.68 31.4562 41.5536 31.7967 41.5536 32.1501C41.5536 32.7873 41.956 33.3368 42.5184 33.4606L43.5012 33.6799C45.5392 34.1339 47.007 36.1306 47.007 38.4497V40.5418C47.007 43.2299 45.0542 45.4071 42.6448 45.4071H37.1913V40.5418H41.4452C41.7625 40.5418 42.0669 40.4 42.2939 40.1497C42.5184 39.8995 42.6448 39.559 42.6448 39.203C42.6448 38.5658 42.2424 38.0163 41.68 37.8925L40.6971 37.6732C38.6592 37.2218 37.1913 35.2251 37.1913 32.906Z" fill="#1D1E1E"/>
<path d="M55.7521 26.026C55.7857 26.6735 55.8682 27.4164 56.0385 28.2316C56.2578 29.2764 56.5647 30.1689 56.8666 30.8861C55.5922 30.8603 54.3178 30.8371 53.0461 30.8113V33.2439H57.4083V38.1092H53.0461V40.5418H59.5881V45.4071H48.6838V25.946C51.0391 25.9744 53.3943 26.0002 55.7521 26.026Z" fill="#1D1E1E"/>
<path d="M65.2686 40.7895V43.929L64.1774 45.4974H60.9064L61.9976 43.929H60.9064V40.7895H65.2686Z" fill="#1D1E1E"/>
<path d="M32.7698 0.5L32.7723 1.91109L26.9887 1.91883L26.9861 0.507739L32.7698 0.5Z" fill="#1D1E1E"/>
<path d="M78.474 41.8729C78.5514 42.0613 78.6313 42.247 78.7268 42.474C78.1902 42.5566 77.7259 42.6262 77.2615 42.6984C77.0448 42.732 76.7946 42.7191 76.6166 42.8248C76.0388 43.1705 75.4325 43.1267 74.8495 42.9977C74.362 43.5962 74.362 43.5962 73.7815 43.3098C73.8099 43.2118 73.8435 43.1086 73.8641 43.0054C73.877 42.9409 73.8718 42.8739 73.8796 42.7371C73.3043 42.7939 72.8013 43.2092 72.2286 43.106C71.6559 43.0054 71.0961 42.8274 70.4641 42.6649C70.3712 42.8248 70.2783 43.0132 70.1571 43.1808C70.0513 43.3279 69.9327 43.4749 69.7856 43.5755C69.4219 43.8258 68.9369 43.6761 68.8079 43.2531C68.6918 42.8764 68.6557 42.4766 68.568 42.0045C67.6703 41.504 66.69 40.9546 65.6813 40.3896C65.5446 40.4464 65.3873 40.5134 65.2247 40.5805C64.9255 40.4954 65.0571 39.8737 64.554 40.0414C64.2574 39.7292 63.922 39.4455 63.6743 39.0998C63.4705 38.8186 63.2255 38.62 62.9391 38.4574C62.3097 38.0989 61.8273 37.4926 61.0663 37.3533C60.54 36.8632 59.9261 36.4556 59.908 35.5991C59.8977 35.1477 59.5726 34.7891 59.178 34.5673C58.7936 34.3532 58.6543 34.072 58.5537 33.636C58.4273 33.0814 58.1151 32.5577 57.8288 32.0495C57.5966 31.6342 57.4006 31.2163 57.2535 30.7571C56.6628 28.9023 56.1417 27.0372 56.0694 25.0766C56.0617 24.8599 56.0101 24.6432 55.9791 24.4369C54.937 24.0912 55.004 23.6681 55.7083 23.2167C55.7057 22.6543 55.7805 22.0816 55.5819 21.5038C55.4271 21.0549 55.6696 20.6292 55.894 20.2603C56.2062 19.7496 56.4022 19.2078 56.4951 18.6222L56.4796 18.6377C56.5518 18.4468 56.6499 18.2585 56.6886 18.0625C56.7273 17.8561 56.7066 17.6368 56.7118 17.4227C56.8614 17.0615 57.1348 16.7468 57.2303 16.2644C56.686 16.6256 56.6731 16.6617 56.7402 17.4433C56.6266 17.5156 56.5131 17.5904 56.3687 17.6832C56.1081 17.4795 56.4951 17.0074 56.0798 16.8448C56.0565 16.8345 56.0694 16.6307 56.1184 16.5482C56.3506 16.1406 56.3248 15.6247 56.7169 15.2712C56.8898 15.1165 56.9414 14.8172 57.0342 14.5773C57.4006 13.6151 57.7978 12.6812 58.6852 12.0492C58.8787 11.9099 58.9922 11.6468 59.1186 11.4275C59.3998 10.94 59.7997 10.5711 60.2588 10.2615C60.3337 10.2099 60.4549 10.2254 60.669 10.1918C60.5297 10.4524 60.4214 10.6227 60.3414 10.8058C60.1789 11.1773 59.699 11.2598 59.5933 11.7164C59.5056 12.0956 59.2476 12.431 59.1057 12.7999C59.0464 12.9547 59.0954 13.1482 59.098 13.3287C58.9251 13.4242 58.7059 13.4784 58.5846 13.6202C58.4169 13.8137 58.2776 13.9762 58.0119 14.0768C57.8081 14.1542 57.6456 14.4148 57.5321 14.6289C57.398 14.8817 57.3128 15.1681 57.2458 15.4492C57.2097 15.5937 57.2948 15.7278 57.4908 15.7072C57.7952 15.4621 57.7927 14.9514 58.2441 14.8353L58.2183 14.8172C58.0377 15.2893 57.852 15.7614 57.6766 16.236C57.5786 16.5043 57.4702 16.7752 57.4212 17.0564C57.3954 17.2086 57.4031 17.433 57.6585 17.464C58.1332 17.0848 57.7565 16.1483 58.6543 16.0684C58.4814 15.4286 58.5743 14.8843 58.9535 14.3916C59.0619 14.2497 59.1393 14.0794 59.2038 13.9117C59.2915 13.6873 59.2166 13.4835 59.0619 13.3081C59.2889 13.3236 59.5804 13.0321 59.6758 13.4784C60.0421 13.2591 59.8022 12.5007 60.5581 12.6761C60.3414 13.1662 60.1324 13.6202 59.9364 14.0768C59.7893 14.4174 59.7945 14.4199 59.9673 15.0597C60.4549 14.9565 60.1582 14.2265 60.7567 14.1181C60.7645 14.487 60.651 14.7863 60.5349 15.0778C60.3233 15.6169 60.1015 16.1535 59.8538 16.6772C59.7868 16.8165 59.601 16.8964 59.472 17.0022C59.552 17.1312 59.6268 17.2499 59.6887 17.3479C59.6423 17.6368 59.3766 17.5104 59.2553 17.6626C59.2553 17.6884 59.2321 17.7916 59.2553 17.8045C59.4695 17.9103 59.5984 18.0547 59.5649 18.3101C59.5314 18.5629 59.4978 18.8157 59.4901 19.0711C59.4798 19.4142 59.5675 19.7212 59.9003 19.9044L59.9054 19.8992C59.5701 19.9044 59.4772 20.1726 59.4437 20.4125C59.4075 20.6525 59.4772 20.9079 59.5056 21.1968C60.086 21.0059 60.0963 20.4358 60.3698 20.0824C60.5632 19.8347 60.4884 19.4555 60.3208 19.1511L60.3104 19.1743C60.4523 19.1433 60.5916 19.1124 60.767 19.0737C60.9218 19.3265 61.0689 19.5664 61.2211 19.8115C61.2469 19.7522 61.2933 19.698 61.2856 19.649C61.2056 19.0763 60.8909 18.5397 60.9966 17.9722C62.1575 17.0435 63.5196 16.9919 64.9229 16.8732C65.0725 17.1312 65.2557 17.3608 65.3511 17.6239C65.8052 18.8828 66.6668 19.8811 67.4458 20.9285C67.6213 21.1658 67.7993 21.3412 67.8044 21.6611C67.807 21.7669 68.0392 21.8675 68.2584 22.0429C68.421 21.5218 68.4597 21.0936 68.5138 20.6705C68.7202 19.0015 68.9137 17.3298 69.1433 15.6634C69.2439 14.9385 69.4141 14.2239 69.5741 13.5093C69.636 13.2256 69.716 12.9366 69.8475 12.6787C70.348 11.6881 71.0703 11.3733 72.1228 11.7577C73.2527 12.173 74.3568 12.6658 75.4867 13.1327C75.9898 13.1095 75.9382 12.5548 76.24 12.2685C77.5659 12.026 78.91 12.1498 80.2488 12.4104C80.4655 12.4516 80.677 12.5136 80.8963 12.5342C81.7915 12.6116 82.3074 13.2256 82.7743 13.8782C83.0684 14.2935 83.2928 14.7579 83.5431 15.2042C83.7469 15.5653 83.8836 15.9084 83.5379 16.2954C83.4192 16.4295 83.4167 16.7055 83.4347 16.9119C83.4863 17.4975 83.4631 18.0754 83.3444 18.6506C83.1716 19.4968 83.3083 20.3248 83.4528 21.1555C83.5018 21.4367 83.556 21.7385 83.5069 22.012C83.4115 22.5356 83.4786 23.0335 83.5843 23.5391C83.7185 24.1944 83.7185 24.1944 84.513 24.3724C84.5827 24.8032 84.5672 25.2133 84.4021 25.6467C84.2783 25.9692 84.3221 26.3561 84.2963 26.7121C84.2938 26.7457 84.3015 26.7973 84.3247 26.8127C84.8922 27.2307 84.7091 27.9607 85.0238 28.4844C85.3772 29.07 85.3411 29.6685 85.0831 30.2747C84.9438 30.6049 84.8123 30.9377 84.673 31.2859C83.574 30.6694 82.8491 29.7768 82.2739 28.7501C82.1165 28.4663 82.0365 28.1387 81.9308 27.8291C81.7296 27.2436 81.5412 26.6528 81.0743 26.1549C80.2772 26.4516 79.4955 26.7431 78.6623 27.0527C78.4224 28.002 78.0612 28.9178 77.9864 29.9084C77.9735 30.0864 77.9658 30.2902 77.8755 30.4346C77.713 30.7003 77.6846 30.9609 77.6846 31.2653C77.6846 31.5052 77.5556 31.7554 77.4447 31.9824C77.3234 32.2327 77.0345 32.341 76.792 32.2094C76.5753 32.0934 76.3586 31.936 76.2039 31.7451C75.546 30.9377 75.3887 29.9496 75.3345 28.9616C75.2416 27.241 75.2133 25.5177 75.1565 23.7971C75.1514 23.6139 75.1333 23.4282 75.1539 23.2476C75.3448 21.4573 75.252 19.6593 75.3345 17.869C75.368 17.1364 75.4325 16.4037 75.5409 15.6814C75.6234 15.1397 75.6002 14.6418 75.2365 14.1207C75.1565 14.2419 75.0533 14.3374 75.0172 14.4561C74.4394 16.2773 74.135 18.1605 73.8357 20.0385C73.7377 20.6473 73.7919 21.2819 73.8048 21.9062C73.8383 23.4205 73.6293 24.8935 73.2037 26.3484C73.0412 26.9005 72.9638 27.5118 73.0102 28.0819C73.0876 29.0158 72.9457 29.9084 72.729 30.8009C72.5742 31.4407 72.4195 32.083 72.257 32.7228C72.177 33.0349 71.9809 33.2413 71.6533 33.28C70.6008 33.409 69.556 33.6412 68.3977 33.5431C67.9179 33.004 67.3891 32.4468 66.9067 31.8509C66.3985 31.224 65.9393 30.5584 65.4517 29.9187C65.168 29.5446 64.9358 29.1396 64.5953 28.7939C64.2883 28.4818 64.1954 27.9684 63.9813 27.5609C63.5892 26.8153 63.161 26.0879 62.7792 25.3372C62.3819 24.5529 62.0259 23.7481 61.6467 22.9561C61.5384 22.7291 61.412 22.5098 61.2959 22.288C60.5684 22.7007 60.5684 22.7007 59.9544 22.7162C59.6449 23.2115 59.65 23.7378 59.7532 24.2924C59.8538 24.8315 59.8874 25.3836 59.9802 25.9279C60.055 26.3587 60.1247 26.7998 60.2846 27.2049C60.4446 27.6124 60.6613 27.9865 60.6613 28.4508C60.6613 28.6108 60.8083 28.7733 60.8934 28.9307C60.945 29.0261 61.0637 29.1241 61.0508 29.2067C60.9631 29.8284 61.3243 30.3263 61.461 30.8809C61.6054 31.4717 62.0079 31.8844 62.2375 32.4107C62.3768 32.7331 62.6399 33.0066 62.6812 33.3858C62.7044 33.6051 62.8592 33.6463 63.0423 33.7211C63.161 33.7676 63.2229 34.0049 63.2668 34.1674C63.3106 34.3325 63.241 34.5544 63.3261 34.6782C63.9916 35.643 64.683 36.5923 65.8155 37.0721C65.8439 37.085 65.8877 37.0618 65.9367 37.0541C66.3624 36.6439 65.4956 36.4014 65.7355 36.079C65.9883 36.2595 66.2514 36.4427 66.543 36.6491C66.69 36.5768 66.819 36.5253 66.9376 36.4556C67.1853 36.3086 67.4433 36.4066 67.4613 36.6207C67.4923 36.9999 68.0108 37.1005 67.9102 37.5416C67.8921 37.6268 68.1372 37.8177 68.292 37.8899C69.022 38.2304 69.7418 38.6045 70.5028 38.8521C71.011 39.0198 71.4959 39.3526 72.079 39.2494L72.048 39.2236C72.8193 39.706 72.7806 39.737 74.4703 38.8392C74.558 38.8831 74.6922 38.9089 74.7438 38.9863C74.9218 39.2546 75.1436 39.3629 75.4712 39.3629C76.7404 39.3629 78.0174 39.5332 79.2608 39.1307C79.8309 39.2675 80.3339 38.7309 80.9376 38.976C81.0511 39.0224 81.2858 38.7799 81.5335 38.6277C81.6109 38.6973 81.7167 38.8624 81.856 38.9037C82.0159 38.9502 82.2094 38.8857 82.4415 38.8624C82.3229 38.6096 82.23 38.4136 82.0881 38.104C82.4132 38.2459 82.6066 38.331 82.8001 38.4162L82.7743 38.3826C82.9936 38.6225 83.0581 38.6174 83.2516 38.3388L83.2103 38.3697C83.4631 38.3207 83.7365 38.3181 83.8965 38.0602L83.8552 38.0911C84.0358 38.0395 84.2473 38.0318 84.3118 37.797L84.2757 37.8332C84.4563 37.7816 84.6884 37.8048 84.7271 37.5365L84.691 37.5726C85.2405 37.4849 85.6997 37.2579 85.9834 36.7523L85.968 36.7884C86.2001 36.6155 86.4401 36.453 86.6593 36.2621C87.0024 35.9629 87.2836 35.6249 87.0618 35.091C87.6215 34.8433 88.0343 34.5105 88.398 34.0978C88.7824 33.6644 89.2055 33.262 89.6492 32.8879C90.098 32.5087 90.5031 32.1063 90.7197 31.549C90.7326 31.5155 90.7584 31.4846 90.7868 31.4639C91.9399 30.61 92.1179 29.2686 92.5049 28.0329C92.7242 27.3364 92.9434 26.6399 93.1472 25.9408C93.2169 25.7009 93.2659 25.4455 93.2685 25.1979C93.2762 24.4317 93.2736 23.6655 93.2401 22.8994C93.2195 22.4247 93.1472 21.9526 93.075 21.4805C93.0182 21.1245 92.8531 20.784 92.9795 20.4022C93.0182 20.2836 92.9666 20.1159 92.9151 19.9869C92.3037 18.4236 91.682 16.8629 91.068 15.2996C91.0293 15.2016 90.9777 15.0365 91.0216 14.9901C91.4782 14.5335 91.0938 14.4612 90.7559 14.2961C90.6243 14.2316 90.5443 13.9969 90.5005 13.824C90.2373 12.787 90.0671 12.5032 89.2261 11.8067C89.0997 11.9796 88.9733 12.1498 88.8495 12.3201C88.6637 12.2195 88.478 12.1189 88.2897 12.0157L88.331 12.0492C88.0833 11.4559 87.6396 11.0251 87.134 10.6562C86.4839 10.1841 85.8183 9.73008 85.1579 9.2709C85.0393 9.18835 84.918 9.09032 84.7839 9.04388C84.3196 8.8891 83.9274 8.63629 83.5972 8.2803C83.4373 8.11004 83.2361 8.00427 83.0091 8.07392C82.8053 8.13841 82.6247 8.26482 82.4054 8.10746C81.9462 7.77726 81.2497 7.82369 80.9221 7.07043C81.0098 7.00593 81.1517 6.90275 81.3323 6.77118C80.5739 6.46936 79.898 6.1469 79.1318 5.97922C77.9271 5.71351 76.6888 5.59227 75.5125 5.17694C74.8108 4.92929 74.0653 5.08665 73.3172 5.07891C73.6551 5.0041 73.9931 4.92929 74.3181 4.85964C74.3671 4.57587 74.4058 4.33854 74.4523 4.06767C74.38 4.05478 74.2717 4.00318 74.1943 4.03156C74.0318 4.09347 73.8409 4.1657 73.7403 4.29469C73.2372 4.92929 72.5975 5.13308 71.8132 5.00926C71.643 4.98346 71.4366 4.99378 71.287 5.06601C70.98 5.21821 70.7014 5.38073 70.428 5.0299C70.0307 5.06601 69.6334 5.09955 69.2361 5.13566L69.2594 5.15372C69.3161 4.95251 69.311 4.67906 69.4425 4.56297C69.6463 4.38498 69.8733 4.15796 70.2113 4.21472C70.3299 4.23535 70.704 3.99802 70.8691 3.87678C71.1013 3.70394 71.3386 3.53368 71.5914 3.38922C71.7333 3.30667 71.79 3.22928 71.7952 3.05644C71.8003 2.90166 71.9293 2.82943 72.1125 2.8707C72.6181 2.98163 73.0154 2.81137 73.312 2.37798C72.7032 2.43473 72.1099 2.49149 71.483 2.55082C71.3721 2.28769 71.6765 2.17419 71.8029 2.14839C72.6852 1.96523 73.5158 1.58602 74.4342 1.52411C76.1342 1.40802 77.8007 1.48541 79.413 2.10453C79.7535 2.2361 80.1018 2.35476 80.4474 2.47343C82.4751 3.15963 84.3686 4.10895 86.1124 5.34978C86.5587 5.66708 86.9766 6.02823 87.3971 6.38165C87.7866 6.71185 88.1375 7.08074 88.6302 7.28712C88.8856 7.39289 89.092 7.64054 89.2932 7.84949C90.5443 9.14191 91.7026 10.5066 92.5926 12.0802C92.6803 12.2375 92.8119 12.3691 92.9305 12.5213C93.0518 12.5213 93.155 12.5161 93.2582 12.5187C94.014 12.5342 94.3236 12.9727 94.0398 13.6486C93.9727 13.8086 93.8437 13.9427 93.707 14.1388C94.9453 16.2464 95.5695 18.5036 95.4793 21.2123C95.3296 20.8485 95.2419 20.7299 95.2342 20.6086C95.1903 19.6773 94.8885 18.8157 94.5686 17.9541C94.2874 17.2008 94.0088 16.445 93.7251 15.6917C93.6606 15.5215 93.5368 15.4983 93.3897 15.5963C93.3794 15.5292 93.3639 15.4647 93.3484 15.4002C93.3639 15.4596 93.382 15.5163 93.3975 15.5756C93.6528 16.3779 93.9057 17.1802 94.1585 17.9825C94.192 18.0883 94.1946 18.2147 94.2591 18.2946C94.8214 18.9886 94.7312 19.8708 94.9633 20.6602C94.8111 21.7953 95.1362 22.9123 95.0846 24.0422C95.0381 25.025 95.1207 26.013 94.9195 26.9882C94.9117 27.0243 94.9246 27.0656 94.9092 27.0965C94.5609 27.8343 94.6589 28.6598 94.4396 29.4234C94.321 29.8387 94.272 30.2953 93.8515 30.5584C93.6683 31.175 93.1395 31.6497 93.1704 32.3642C93.1808 32.6248 92.995 32.8931 92.9022 33.1433C92.6855 33.133 92.5462 33.1278 92.4223 33.1227C91.798 33.845 91.1712 34.5544 90.565 35.2793C90.1213 35.8107 89.7008 36.3653 89.27 36.907L89.3009 36.8735C89.1461 36.9664 88.9475 37.0283 88.8469 37.1599C88.2536 37.9338 87.4461 38.4497 86.6516 38.9631C85.6997 39.577 84.7168 40.1471 83.7159 40.6785C82.7485 41.1945 81.6625 41.3647 80.6074 41.6021C80.4887 41.6279 80.3468 41.5402 80.2153 41.5144C79.9728 41.4654 79.7277 41.4267 79.5342 41.3905C79.3227 41.5247 79.6065 41.7491 79.3227 41.8342C79.0467 41.9168 78.7474 41.5608 78.5101 41.9039C78.2728 41.7904 78.0354 41.6743 77.7414 41.5298C77.6304 41.762 77.5427 41.9452 77.4395 42.1593C77.6536 42.2341 77.8187 42.3063 77.9942 42.3476C78.3398 42.4276 78.4018 42.3579 78.474 41.8729ZM84.3067 38.8031C84.4356 38.7077 84.5646 38.6096 84.6936 38.5142C84.7891 38.3929 84.8845 38.2743 84.98 38.153C85.158 38.1376 85.385 38.2072 85.4004 37.908C85.6017 37.8512 85.8029 37.7945 86.0041 37.7351C86.0221 37.6577 86.0376 37.5803 86.0557 37.5004C86.0273 37.5159 85.9783 37.5313 85.9783 37.5442C85.9809 37.6061 85.9963 37.6681 86.0067 37.73C85.808 37.7764 85.5578 37.6784 85.4314 37.9338C85.2921 38.0163 85.1528 38.0963 85.0135 38.1788C84.8226 38.2124 84.7142 38.3156 84.7091 38.5142C84.5079 38.4961 84.317 38.4936 84.3118 38.7722C84.2422 38.8547 84.1725 38.9321 84.1416 38.7489C84.1957 38.7696 84.2499 38.7851 84.3067 38.8031ZM80.4758 24.9244C80.1301 23.8255 79.9109 23.4488 79.3021 22.9045C79.0751 23.7274 78.8326 24.5117 78.8893 25.3501C78.8919 25.4017 78.9873 25.4455 79.0441 25.4971C79.5652 25.4765 79.9934 25.2185 80.4758 24.9244ZM87.7737 10.4627C87.8228 10.3931 87.8563 10.3647 87.864 10.3311C87.9698 9.83585 87.1882 9.61657 87.4616 9.05678C87.4668 9.04646 87.2965 8.90974 87.1985 8.89426C86.9586 8.85815 86.7109 8.86073 86.3523 8.84009C86.8064 9.51339 87.2527 10.0164 87.7737 10.4627ZM88.2175 8.98455C88.5012 9.17029 88.7282 9.32507 88.9604 9.46437C88.9888 9.47985 89.0662 9.41794 89.1178 9.38956C88.7927 8.83235 88.7927 8.83235 88.2175 8.98455ZM93.2839 27.1042C93.3975 26.7998 93.4542 26.7096 93.4594 26.6141C93.4645 26.5341 93.4078 26.449 93.3794 26.3665C93.3149 26.4361 93.2169 26.498 93.1937 26.578C93.1704 26.6683 93.222 26.774 93.2839 27.1042ZM75.4196 3.99802C75.3603 4.02898 75.2494 4.07283 75.2545 4.09089C75.2726 4.17602 75.3036 4.30243 75.3655 4.32822C75.448 4.36176 75.5693 4.33338 75.6621 4.30243C75.6905 4.29211 75.7163 4.15022 75.6957 4.13475C75.6157 4.07283 75.5151 4.0393 75.4196 3.99802ZM87.6344 7.73082C87.5828 7.69729 87.5338 7.66375 87.4822 7.63022C87.4023 7.74372 87.3171 7.85465 87.2449 7.97331C87.2346 7.99137 87.2578 8.05844 87.281 8.06618C87.3352 8.08682 87.4358 8.11004 87.4513 8.08682C87.5235 7.97589 87.5751 7.84949 87.6344 7.73082ZM56.5183 26.5574C56.6008 26.5703 56.6834 26.5806 56.766 26.5935C56.7144 26.271 56.6628 25.9486 56.6112 25.6287C56.5518 25.6364 56.4925 25.6467 56.4306 25.6545C56.4615 25.9537 56.4899 26.2555 56.5183 26.5574ZM58.8916 21.7772C58.8684 21.8881 58.8065 22.0068 58.8374 22.0919C58.8607 22.1513 59.0103 22.1642 59.1057 22.1848C59.1109 22.1874 59.1702 22.0635 59.1522 22.0403C59.0799 21.9449 58.9871 21.8675 58.8916 21.7772ZM78.8455 4.35402C77.9477 4.20182 77.0474 4.04962 76.1497 3.89742C76.9262 4.14249 77.6717 4.39529 78.4946 4.62489C78.8816 4.73323 79.4181 4.79257 79.8877 4.87254C79.542 4.70228 79.1937 4.52944 78.8455 4.35402ZM86.4452 8.33447C86.5432 8.39122 86.6284 8.44282 86.7161 8.49441C86.7316 8.46603 86.7702 8.41702 86.7625 8.40928C86.7032 8.34479 86.6387 8.28546 86.5716 8.23128C86.5665 8.2287 86.5226 8.27256 86.4452 8.33447ZM87.1417 36.8348C87.1649 36.809 87.1907 36.7832 87.214 36.7574C87.1546 36.7368 87.0953 36.711 87.0334 36.7033C87.0102 36.7007 86.9844 36.7471 86.9586 36.7729C87.0205 36.7935 87.0798 36.8142 87.1417 36.8348ZM56.7582 20.4125C56.7608 20.361 56.7634 20.3094 56.766 20.2578C56.704 20.2758 56.6447 20.2939 56.5828 20.3119C56.6034 20.3584 56.6137 20.4125 56.6447 20.4487C56.655 20.459 56.7195 20.4254 56.7582 20.4125ZM83.3934 39.0946C83.3676 39.0895 83.3419 39.0843 83.3186 39.0791C83.3367 39.1049 83.3547 39.1282 83.3702 39.1539C83.378 39.1359 83.3857 39.1153 83.3934 39.0946ZM75.0507 41.0062C74.9992 40.9778 74.9501 40.9468 74.8934 40.9288C74.8805 40.9262 74.8366 40.9752 74.8341 41.001C74.8341 41.0268 74.8753 41.0784 74.8882 41.0758C74.945 41.0629 74.9966 41.032 75.0507 41.0062ZM84.139 6.61382C84.1158 6.63446 84.0667 6.668 84.0719 6.67573C84.0951 6.72475 84.1312 6.77118 84.1648 6.81762C84.1828 6.76602 84.2086 6.71701 84.2189 6.66542C84.2164 6.65252 84.1648 6.63188 84.139 6.61382ZM58.7704 20.6731H58.9174L58.8374 20.4848L58.7704 20.6731ZM78.2392 3.50272C78.5359 3.52852 78.83 3.5569 79.1267 3.58269C78.8919 3.45113 78.67 3.30667 78.4147 3.19574C78.296 3.14415 78.1128 3.15963 77.9581 3.14415C78.0535 3.26281 78.1464 3.38406 78.2392 3.50272ZM80.7209 3.75037C80.6899 3.80197 80.6616 3.85614 80.6306 3.90773C80.7493 3.97996 80.8679 4.05478 80.9892 4.12185C81.0072 4.13217 81.0743 4.10121 81.0795 4.08057C81.0949 4.02382 81.113 3.92321 81.0898 3.91031C80.9737 3.84324 80.8447 3.80197 80.7209 3.75037ZM81.9204 4.58877C82.506 4.8132 83.0271 5.01442 83.5482 5.21305C83.6849 5.20531 83.9713 5.20531 83.9326 5.18468C83.6076 5.01442 83.2335 4.839 82.8362 4.66358C82.8027 4.65326 82.4777 4.6352 81.9204 4.58877ZM78.087 40.289C77.7207 40.3612 77.357 40.4309 76.9932 40.5031C76.6888 40.645 76.3819 40.7869 76.0775 40.9288C75.657 40.8127 75.1849 40.5083 74.9372 41.0345C74.4342 40.9778 73.9312 40.9185 73.4281 40.8617C73.3327 40.9881 73.2372 41.1171 73.1392 41.2435C73.2114 41.2383 73.3404 41.2512 73.3507 41.2254C73.3894 41.1119 73.3946 40.9855 73.423 40.8643C73.9131 40.9391 74.4161 41.3157 74.8882 40.9571C75.2674 40.921 75.6467 40.8849 76.0233 40.8462C76.4825 40.9391 76.8075 40.8359 76.9649 40.4851C77.4137 40.6811 77.8471 40.8385 78.0587 40.338C78.2754 40.2452 78.4895 40.16 78.4327 40.5186C78.3141 40.4412 78.2005 40.3638 78.087 40.289ZM80.9918 40.547C81.1749 40.5083 81.4329 40.4515 81.7373 40.3716C83.4915 39.9072 84.8045 39.1978 84.7916 39.1669C84.7865 39.1539 84.5827 39.2468 83.832 39.5022C83.832 39.5022 83.4786 39.6209 83.0761 39.7499C82.4699 39.9433 81.0975 40.3329 79.2659 40.792C79.8412 40.7095 80.4165 40.6295 80.9918 40.547Z" fill="#B0CC22"/>
<path d="M87.5957 15.7949C88.1839 16.3238 88.2149 16.9945 88.024 17.6213C87.7531 18.5165 87.7221 19.4142 87.7118 20.3326C87.6938 21.7953 87.637 23.2579 87.6164 24.7206C87.6086 25.2314 87.6886 25.7448 87.6938 26.2555C87.7041 27.388 87.7041 28.5231 87.686 29.6556C87.6835 29.8671 87.6035 30.0889 87.5106 30.2824C87.2655 30.7958 86.6284 30.9119 86.2259 30.5043C86.0505 30.3289 85.9164 30.0941 85.8158 29.8645C85.501 29.1551 85.3282 28.4122 85.3076 27.6331C85.2714 26.2788 85.2199 24.9244 85.1863 23.5701C85.1812 23.3173 85.2327 23.0619 85.2637 22.8091C85.3334 22.2287 85.3746 21.6534 85.2921 21.0601C85.1089 19.7315 85.4056 18.4391 85.6945 17.1518C85.7332 16.9842 85.8338 16.7778 85.968 16.6927C86.4891 16.3779 87.036 16.0993 87.5957 15.7949Z" fill="#B0CC22"/>
<path d="M91.4369 18.0754C92.0663 19.1227 92.0147 20.2913 91.9812 21.4057C91.9554 22.2596 91.6329 23.1135 91.393 23.9519C91.3053 24.2563 91.1067 24.5478 90.9029 24.7954C90.5908 25.1747 90.1161 25.1772 89.7369 24.8522C89.448 24.6045 89.2777 24.2872 89.1926 23.9209C88.963 22.9226 88.7231 21.9243 88.5064 20.9208C88.349 20.1855 88.349 19.4658 88.7876 18.8028C89.3654 17.9309 90.0955 17.6652 91.148 17.9619C91.2537 17.9928 91.3518 18.0418 91.4369 18.0754Z" fill="#B0CC22"/>
<path d="M88.3 12.0131C88.3697 12.253 88.4109 12.5058 88.5115 12.7328C88.8649 13.5351 87.9646 14.7115 87.2784 14.8817C86.5768 15.0546 85.7771 14.3864 85.8467 13.6409C85.8983 13.094 86.066 12.5729 86.4194 12.1344C86.8244 11.6287 87.2501 11.5307 87.8615 11.799C88.0266 11.8712 88.1813 11.9641 88.3413 12.0492C88.3413 12.0466 88.3 12.0131 88.3 12.0131Z" fill="#B0CC22"/>
<path d="M91.9193 27.0398C91.9812 27.6408 91.9554 28.1078 91.6562 28.5257C91.3569 28.941 90.9107 29.1345 90.4102 29.021C89.9123 28.9075 89.6827 28.5257 89.6131 28.0742C89.5073 27.3854 89.7034 26.756 90.1935 26.2555C90.8255 25.6106 91.6226 25.8428 91.8626 26.7225C91.9013 26.8643 91.9142 27.0114 91.9193 27.0398Z" fill="#B0CC22"/>
<path d="M62.1962 29.1964C62.6399 29.1577 62.983 29.3254 63.0913 29.6349C63.2023 29.9497 63.0114 30.5043 62.725 30.6874C62.5599 30.7932 62.1704 30.7752 62.0079 30.6307C61.7164 30.3727 61.6106 30.0374 61.6648 29.6581C61.6983 29.426 61.9537 29.217 62.1962 29.1964Z" fill="#B0CC22"/>
<path d="M76.9571 34.5415C77.5634 34.686 77.8755 35.0161 77.9426 35.5785C77.9787 35.8803 77.7749 36.1435 77.4731 36.2002C76.9804 36.2905 76.5263 35.8365 76.6553 35.3618C76.7276 35.0935 76.8462 34.8356 76.9571 34.5415Z" fill="#B0CC22"/>
<path d="M89.2777 36.9071C89.4144 36.9045 89.5537 36.9045 89.7291 36.9019C89.11 37.9157 88.3542 38.6741 87.6241 39.0043C87.8021 38.571 88.1607 38.3672 88.4316 38.0937C88.7901 37.7326 89.19 37.4049 89.3087 36.8735L89.2777 36.9071Z" fill="#B0CC22"/>
<path d="M67.9979 5.46071C68.2275 5.60775 68.4339 5.74189 68.6402 5.87604C68.4829 6.14175 68.3797 6.39197 68.034 6.26041C67.9618 6.23203 67.8509 6.24493 67.7786 6.28105C67.6393 6.35586 67.5026 6.41519 67.4046 6.25267C67.2859 6.0592 67.3762 5.90699 67.5439 5.78833C67.6883 5.68514 67.8328 5.57937 67.9979 5.46071Z" fill="#B0CC22"/>
<path d="M67.5284 35.3567C67.3066 35.0574 67.0718 34.7582 66.8654 34.4409C66.8319 34.3893 66.8938 34.2268 66.9583 34.1674C67.0254 34.1055 67.1673 34.0565 67.2472 34.0823C67.5748 34.1881 67.8741 34.882 67.7477 35.2225C67.7296 35.2715 67.6368 35.2922 67.5284 35.3567Z" fill="#B0CC22"/>
<path d="M67.1079 5.52263C66.4475 6.22172 65.9058 6.58804 65.1835 6.8718C65.2325 6.7067 65.2376 6.5674 65.2867 6.55192C65.7716 6.38682 66.1276 6.0463 66.4991 5.71868C66.5868 5.64129 66.7416 5.63613 67.1079 5.52263Z" fill="#B0CC22"/>
<path d="M92.6158 21.8933C92.59 22.4634 92.4094 23.0593 92.8738 23.5443C92.6932 23.6604 92.5745 23.7378 92.4198 23.8384C92.4223 23.4824 92.4327 23.1651 92.4249 22.8504C92.4172 22.5382 92.3888 22.2261 92.3682 21.9139C92.4507 21.9088 92.5333 21.901 92.6158 21.8933Z" fill="#B0CC22"/>
<path d="M55.3213 23.2528C55.2362 22.5872 54.6326 22.0403 54.8802 21.2458C55.5019 21.8546 55.2594 22.6001 55.3213 23.2528Z" fill="#B0CC22"/>
<path d="M63.4344 31.3865C63.5815 31.5955 63.7259 31.7193 63.7569 31.8689C63.8008 32.0753 63.5557 32.2817 63.339 32.243C63.1533 32.212 62.9546 32.0934 63.0165 31.8947C63.0681 31.7219 63.2564 31.5929 63.4344 31.3865Z" fill="#B0CC22"/>
<path d="M75.2339 44.6358C75.0404 44.4526 74.8444 44.352 74.8366 44.2385C74.8263 44.107 74.9501 43.9109 75.0714 43.8387C75.2365 43.7406 75.4661 43.8464 75.4816 44.0244C75.497 44.1843 75.3526 44.3623 75.2339 44.6358Z" fill="#B0CC22"/>
<path d="M90.1084 15.1887C89.8452 14.8327 89.5666 14.6031 89.6079 14.0511C89.8633 14.4354 90.0387 14.6986 90.2064 14.9643C90.2167 14.9772 90.1832 15.021 90.1084 15.1887Z" fill="#B0CC22"/>
<path d="M83.2799 41.5324C82.9007 41.842 82.5654 42.0303 82.1294 41.9607C82.052 41.7079 82.2274 41.6098 82.3848 41.5814C82.6531 41.535 82.9291 41.5479 83.2799 41.5324Z" fill="#B0CC22"/>
<path d="M71.0677 36.5149C71.0006 36.5923 70.9207 36.7471 70.7969 36.8193C70.6601 36.8993 70.4228 36.7239 70.4357 36.5511C70.446 36.4376 70.5337 36.2879 70.6292 36.2312C70.784 36.1383 70.9981 36.2621 71.0677 36.5149Z" fill="#B0CC22"/>
<path d="M86.7212 3.35054C86.5252 3.5466 86.4349 3.6988 86.3033 3.75297C86.1511 3.81746 85.9164 3.61367 85.9551 3.46147C85.986 3.34538 86.0969 3.17512 86.1898 3.1648C86.3214 3.14932 86.4684 3.25509 86.7212 3.35054Z" fill="#B0CC22"/>
<path d="M82.8053 38.4136C82.8801 38.3027 82.9317 38.135 83.0375 38.0886C83.4476 37.9054 83.8733 37.7609 84.2938 37.601L84.2576 37.5752C84.2654 37.6577 84.2705 37.7429 84.2783 37.8254L84.3144 37.7893C84.1235 37.828 83.8862 37.7919 83.8578 38.0834L83.8991 38.0524C83.6256 38.055 83.3625 38.0808 83.2129 38.362L83.2541 38.331C83.0942 38.3465 82.9368 38.3594 82.7769 38.3749C82.7795 38.3826 82.8053 38.4136 82.8053 38.4136Z" fill="#B0CC22"/>
<path d="M64.6082 35.2844C64.8146 35.4702 65.021 35.6533 65.2247 35.8442C65.2454 35.8623 65.2376 35.9087 65.2454 35.95C65.1009 36.1822 64.9358 36.0145 64.8275 35.9294C64.6727 35.8107 64.5592 35.6353 64.4276 35.4857C64.4973 35.4263 64.5695 35.3696 64.6392 35.3102C64.6392 35.3128 64.6082 35.2844 64.6082 35.2844Z" fill="#B0CC22"/>
<path d="M76.1497 36.0093C76.1678 36.2802 76.0001 36.4556 75.8143 36.404C75.7008 36.3731 75.5719 36.2596 75.528 36.1512C75.4635 35.9939 75.6518 35.7359 75.7989 35.7746C75.9433 35.8159 76.0646 35.95 76.1497 36.0093Z" fill="#B0CC22"/>
<path d="M56.5028 18.6222C56.3352 18.7848 56.1701 18.9473 55.9559 19.1537C55.8218 18.8002 55.8785 18.5397 56.152 18.3127C56.2732 18.4339 56.379 18.5397 56.4848 18.6403C56.4874 18.6351 56.5028 18.6222 56.5028 18.6222Z" fill="#B0CC22"/>
<path d="M56.3016 32.2378C56.4409 32.4494 56.5854 32.5758 56.5983 32.7125C56.6138 32.8982 56.4564 33.0246 56.2578 33.0375C56.0875 33.0504 55.8915 32.8466 55.9482 32.6867C55.9998 32.5474 56.1391 32.439 56.3016 32.2378Z" fill="#B0CC22"/>
<path d="M91.8135 3.86647C91.9709 4.08058 92.105 4.19667 92.1386 4.33597C92.1541 4.39789 91.9761 4.56814 91.8703 4.58104C91.7723 4.59394 91.5633 4.44948 91.571 4.39531C91.5891 4.24568 91.6949 4.10638 91.8135 3.86647Z" fill="#B0CC22"/>
<path d="M60.3285 19.1537C60.2073 18.9396 60.0628 18.7358 59.9777 18.5088C59.9467 18.4236 60.0551 18.2869 60.1376 18.078C60.473 18.483 60.3105 18.839 60.3182 19.1717C60.3182 19.1769 60.3285 19.1537 60.3285 19.1537Z" fill="#B0CC22"/>
<path d="M63.2461 27.0836C63.1378 27.2126 63.0862 27.3313 63.0165 27.3442C62.8153 27.3829 62.6812 27.2539 62.6502 27.0681C62.6399 27.0011 62.774 26.8411 62.7998 26.8515C62.9391 26.8979 63.0681 26.9856 63.2461 27.0836Z" fill="#B0CC22"/>
<path d="M84.6394 41.0165C84.3376 41.1506 84.1287 41.2538 83.912 41.3338C83.8784 41.3467 83.783 41.2693 83.7649 41.2151C83.7443 41.1584 83.7572 41.0552 83.7959 41.0165C84.0203 40.805 84.2628 40.725 84.6394 41.0165Z" fill="#B0CC22"/>
<path d="M79.0983 42.3992C79.2144 42.2805 79.3072 42.1387 79.4414 42.0716C79.4852 42.0484 79.6271 42.216 79.7226 42.296C79.5368 42.5282 79.3666 42.5953 79.0983 42.3992Z" fill="#B0CC22"/>
<path d="M72.2879 6.09015C72.146 6.25009 72.0919 6.36876 72.0145 6.38423C71.9319 6.40229 71.8029 6.34812 71.7488 6.28105C71.7178 6.24235 71.7849 6.05145 71.8313 6.04372C71.9448 6.01792 72.0712 6.06177 72.2879 6.09015Z" fill="#B0CC22"/>
<path d="M79.769 33.863C79.5832 33.9378 79.493 33.974 79.4027 34.0075C79.3614 33.8888 79.315 33.7702 79.2866 33.6463C79.284 33.6334 79.4181 33.5561 79.4439 33.5741C79.5445 33.6412 79.6271 33.7315 79.769 33.863Z" fill="#B0CC22"/>
<path d="M64.8378 29.7381C64.7836 29.7588 64.714 29.8103 64.6753 29.7923C64.6262 29.7717 64.603 29.6943 64.5669 29.6401C64.6237 29.6195 64.6907 29.5679 64.732 29.5833C64.7784 29.604 64.8017 29.6839 64.8378 29.7381Z" fill="#B0CC22"/>
<path d="M63.1971 8.41702C63.1455 8.49699 63.0965 8.57438 63.0475 8.64919C63.0114 8.59759 62.952 8.55116 62.9469 8.49699C62.9417 8.43765 62.983 8.37058 63.0062 8.30867C63.0578 8.33705 63.112 8.368 63.1971 8.41702Z" fill="#B0CC22"/>
<path d="M63.6202 7.77727C63.7543 7.86756 63.8291 7.91915 63.9065 7.96816C63.8085 8.0404 63.7156 8.1281 63.6073 8.1797C63.566 8.19776 63.486 8.13326 63.4241 8.10489C63.486 8.00428 63.5454 7.90367 63.6202 7.77727Z" fill="#B0CC22"/>
<path d="M64.1929 6.97241C64.3141 7.06012 64.3915 7.11687 64.4715 7.17363C64.4121 7.23812 64.3606 7.32583 64.2857 7.35936C64.2419 7.38 64.1 7.31293 64.1026 7.29229C64.1077 7.19942 64.149 7.10914 64.1929 6.97241Z" fill="#B0CC22"/>
<path d="M82.1552 11.9899C82.3796 11.9099 82.4725 11.8583 82.5679 11.8506C82.6247 11.8454 82.6866 11.9099 82.7459 11.9435C82.6892 11.9822 82.635 12.0466 82.5731 12.0518C82.4828 12.0595 82.3874 12.0286 82.1552 11.9899Z" fill="#B0CC22"/>
<path d="M61.6544 13.419C61.5719 13.6099 61.4868 13.7983 61.3397 14.1362C61.2133 13.6306 61.3423 13.468 61.6854 13.4423L61.6544 13.419Z" fill="#B0CC22"/>
<path d="M64.8868 8.1152C64.8017 8.19775 64.7114 8.28546 64.6211 8.37317C64.5618 8.30868 64.4431 8.19775 64.4534 8.18743C64.5334 8.08682 64.6366 8.0017 64.732 7.91399C64.7707 7.96558 64.8094 8.01717 64.8868 8.1152Z" fill="#B0CC22"/>
<path d="M86.0454 10.2022C85.9628 10.2925 85.8957 10.3802 85.8854 10.375C85.7771 10.3079 85.6765 10.2254 85.5733 10.148C85.6171 10.1041 85.6791 10.0164 85.7023 10.0267C85.8184 10.068 85.9215 10.1377 86.0454 10.2022Z" fill="#B0CC22"/>
<path d="M56.0411 31.4691C55.9172 31.5491 55.8373 31.6419 55.7625 31.6393C55.7005 31.6368 55.5896 31.5129 55.5974 31.4562C55.6051 31.3865 55.7134 31.2782 55.7805 31.2782C55.8527 31.273 55.925 31.3762 56.0411 31.4691Z" fill="#B0CC22"/>
<path d="M93.2582 6.11079C93.3072 6.14691 93.3536 6.18045 93.4 6.21656C93.3381 6.27331 93.2736 6.32749 93.2117 6.38424C93.1808 6.33523 93.1189 6.27847 93.1266 6.2372C93.1395 6.1856 93.2117 6.15207 93.2582 6.11079Z" fill="#B0CC22"/>
<path d="M64.6392 35.3128C64.6159 35.2457 64.5927 35.1787 64.5721 35.1116C64.5256 34.9491 64.4173 34.7762 64.6443 34.6627C64.6649 34.6524 64.7114 34.6679 64.7346 34.686C64.941 34.8253 64.8662 34.98 64.7501 35.1322C64.7062 35.189 64.6521 35.2354 64.6056 35.287C64.6082 35.2844 64.6392 35.3128 64.6392 35.3128Z" fill="#B0CC22"/>
<path d="M63.4447 39.3732C63.5092 39.3913 63.6253 39.4119 63.6253 39.4248C63.6202 39.5125 63.5866 39.6002 63.5634 39.6854C63.486 39.6286 63.4086 39.5693 63.3338 39.5125C63.3699 39.4661 63.4086 39.4197 63.4447 39.3732Z" fill="#B0CC22"/>
<path d="M59.908 19.9069C59.8796 19.747 59.8487 19.5845 59.8203 19.4245C59.8487 19.422 59.8771 19.4168 59.9054 19.4142C59.908 19.5767 59.9106 19.7418 59.9132 19.9044C59.9132 19.9018 59.908 19.9069 59.908 19.9069Z" fill="#B0CC22"/>
<path d="M84.2938 37.6036C84.2912 37.2734 84.3221 37.2527 84.7014 37.3456L84.6756 37.3172C84.6807 37.3998 84.6885 37.4823 84.6936 37.5675L84.7297 37.5313C84.5724 37.5468 84.415 37.5623 84.2576 37.5778L84.2938 37.6036Z" fill="#B0CC22"/>
<path d="M60.7051 26.6115C60.7903 26.658 60.8702 26.6786 60.8754 26.7096C60.8857 26.7999 60.8651 26.8953 60.8573 26.9882C60.8109 26.965 60.7309 26.9495 60.7232 26.9159C60.7 26.8282 60.7103 26.7328 60.7051 26.6115Z" fill="#B0CC22"/>
<path d="M61.1695 26.1936C61.1101 26.1936 61.0534 26.1936 60.9941 26.1936C60.9941 26.1653 60.9941 26.1137 60.9941 26.1137C61.0508 26.1085 61.1101 26.1111 61.1669 26.1111C61.1695 26.1369 61.1695 26.1653 61.1695 26.1936Z" fill="#B0CC22"/>
<path d="M69.2465 5.13826C69.231 5.23629 69.2284 5.34206 69.1923 5.42976C69.1768 5.46588 69.0839 5.46846 69.0272 5.48394C69.0246 5.42718 68.9988 5.34463 69.0246 5.31626C69.0943 5.24919 69.1871 5.20791 69.2697 5.15374C69.2722 5.15632 69.2465 5.13826 69.2465 5.13826Z" fill="#B0CC22"/>
<path d="M83.7623 8.78076C83.6695 8.80656 83.5843 8.85299 83.556 8.82978C83.4863 8.7756 83.445 8.69047 83.3909 8.61566C83.4476 8.60276 83.5198 8.56149 83.556 8.58213C83.6308 8.62598 83.6875 8.70337 83.7623 8.78076Z" fill="#B0CC22"/>
<path d="M86.8425 35.4728C86.8141 35.4934 86.7857 35.514 86.7599 35.5321C86.7367 35.4986 86.7109 35.465 86.6877 35.4315C86.7212 35.4212 86.7574 35.3954 86.7883 35.4005C86.8064 35.4057 86.8219 35.447 86.8425 35.4728Z" fill="#B0CC22"/>
<path d="M85.5397 36.8193C85.6584 36.4737 85.8158 36.6413 85.9706 36.7858L85.986 36.7497C85.8287 36.7652 85.6713 36.7806 85.5139 36.7961L85.5397 36.8193Z" fill="#B0CC22"/>
<path d="M85.1244 37.0799C85.1605 36.8297 85.354 36.8322 85.5397 36.8168L85.5139 36.7935C85.4907 37.0644 85.2792 37.0386 85.096 37.0541L85.1244 37.0799Z" fill="#B0CC22"/>
<path d="M55.1072 20.9079C55.0943 20.8382 55.084 20.7686 55.0711 20.6989C55.0969 20.6937 55.1227 20.6912 55.1485 20.686C55.1227 20.7505 55.0995 20.8176 55.0737 20.8821L55.1072 20.9079Z" fill="#B0CC22"/>
<path d="M64.0639 29.2764C64.0329 29.2686 64.0046 29.2609 63.9736 29.2531C64.002 29.2222 64.0278 29.1861 64.0639 29.1628C64.0716 29.1577 64.1103 29.1964 64.1335 29.217C64.1129 29.2351 64.0897 29.2557 64.0639 29.2764Z" fill="#B0CC22"/>
<path d="M84.7013 37.3456C84.7297 37.0747 84.9361 37.0928 85.127 37.0825L85.0986 37.0567C85.0625 37.3146 84.8587 37.2966 84.6781 37.3198L84.7013 37.3456Z" fill="#B0CC22"/>
<path d="M72.0815 39.2494C72.0686 39.1798 72.0403 39.1101 72.048 39.043C72.0506 39.0121 72.1177 38.9863 72.1564 38.9579C72.1641 38.9914 72.1873 39.0353 72.1744 39.0559C72.1409 39.1153 72.0919 39.1669 72.048 39.221C72.0506 39.2236 72.0815 39.2494 72.0815 39.2494Z" fill="#B0CC22"/>
<path d="M60.362 16.6901C60.3182 16.7107 60.2743 16.7288 60.2305 16.7494C60.2253 16.6901 60.2176 16.6307 60.2227 16.5714C60.2253 16.5508 60.264 16.5353 60.2872 16.5172C60.3104 16.5766 60.3362 16.6333 60.362 16.6901Z" fill="#B0CC22"/>
<path d="M61.6854 13.4423C61.6983 13.3391 61.7112 13.2385 61.7241 13.1353C61.7447 13.1533 61.7886 13.1843 61.786 13.1894C61.7447 13.2668 61.6983 13.3416 61.6544 13.4165C61.6544 13.419 61.6854 13.4423 61.6854 13.4423Z" fill="#B0CC22"/>
<path d="M60.8857 23.9467C60.8548 23.988 60.8238 24.0602 60.7928 24.0628C60.749 24.0654 60.7026 24.0138 60.6639 23.9803C60.6587 23.9751 60.6948 23.9003 60.7051 23.9003C60.7645 23.908 60.8212 23.9287 60.8857 23.9467Z" fill="#B0CC22"/>
<path d="M60.7722 12.2272C60.7412 12.2711 60.7129 12.3485 60.6871 12.3485C60.6303 12.3459 60.5736 12.3046 60.5168 12.2788C60.54 12.253 60.5607 12.2092 60.5865 12.2092C60.6432 12.2014 60.7026 12.2169 60.7722 12.2272Z" fill="#B0CC22"/>
<path d="M70.2474 5.40654C70.2164 5.4246 70.1855 5.45555 70.1545 5.45555C70.1261 5.45555 70.0977 5.42718 70.0668 5.4117C70.1287 5.40912 70.188 5.40654 70.2474 5.40654Z" fill="#B0CC22"/>
<path d="M55.0711 20.8821C55.0169 20.944 54.9653 21.0059 54.9112 21.0678C54.9086 21.0343 54.8983 20.9801 54.9086 20.9724C54.9679 20.9414 55.035 20.9259 55.1021 20.9053C55.1072 20.9079 55.0711 20.8821 55.0711 20.8821Z" fill="#B0CC22"/>
<path d="M58.2493 14.8379C58.1874 14.714 58.1745 14.5283 58.337 14.5902C58.4815 14.6444 58.4144 14.8095 58.2235 14.8198L58.2493 14.8379Z" fill="#B0CC22"/>
</svg>
